<svg xmlns="http://www.w3.org/2000/svg" xmlns:xlink="http://www.w3.org/1999/xlink" width="600" zoomAndPan="magnify" viewBox="0 0 450 225" height="300" preserveAspectRatio="xMidYMid meet" version="1.0"><defs><g/><clipPath id="56f18d1450"><path d="M 378.128906 152.199219 L 445.628906 152.199219 L 445.628906 219.699219 L 378.128906 219.699219 Z M 378.128906 152.199219 " clip-rule="nonzero"/></clipPath><clipPath id="7163b2aa2d"><path d="M 378.128906 78.75 L 445.628906 78.75 L 445.628906 146.25 L 378.128906 146.25 Z M 378.128906 78.75 " clip-rule="nonzero"/></clipPath><clipPath id="cae8c91c7d"><path d="M 378.128906 5.300781 L 445.628906 5.300781 L 445.628906 72.800781 L 378.128906 72.800781 Z M 378.128906 5.300781 " clip-rule="nonzero"/></clipPath><clipPath id="f993baf47e"><path d="M 281 68 L 288 68 L 288 76 L 281 76 Z M 281 68 " clip-rule="nonzero"/></clipPath><clipPath id="2e366638bb"><path d="M 264.957031 39.050781 L 318 52.617188 L 306.847656 96.214844 L 253.808594 82.648438 Z M 264.957031 39.050781 " clip-rule="nonzero"/></clipPath><clipPath id="0013b3e14b"><path d="M 264.957031 39.050781 L 318 52.617188 L 306.847656 96.214844 L 253.808594 82.648438 Z M 264.957031 39.050781 " clip-rule="nonzero"/></clipPath><clipPath id="19907b05d7"><path d="M 264.957031 39.050781 L 318 52.617188 L 306.847656 96.214844 L 253.808594 82.648438 Z M 264.957031 39.050781 " clip-rule="nonzero"/></clipPath><clipPath id="61d9ee0763"><path d="M 255 66 L 310 66 L 310 96 L 255 96 Z M 255 66 " clip-rule="nonzero"/></clipPath><clipPath id="7ba67d7472"><path d="M 264.957031 39.050781 L 318 52.617188 L 306.847656 96.214844 L 253.808594 82.648438 Z M 264.957031 39.050781 " clip-rule="nonzero"/></clipPath><clipPath id="7533d82178"><path d="M 264.957031 39.050781 L 318 52.617188 L 306.847656 96.214844 L 253.808594 82.648438 Z M 264.957031 39.050781 " clip-rule="nonzero"/></clipPath><clipPath id="8aef1421b6"><path d="M 264.957031 39.050781 L 318 52.617188 L 306.847656 96.214844 L 253.808594 82.648438 Z M 264.957031 39.050781 " clip-rule="nonzero"/></clipPath><clipPath id="f2d3a9caf9"><path d="M 259 44 L 316 44 L 316 77 L 259 77 Z M 259 44 " clip-rule="nonzero"/></clipPath><clipPath id="a18af5994c"><path d="M 264.957031 39.050781 L 318 52.617188 L 306.847656 96.214844 L 253.808594 82.648438 Z M 264.957031 39.050781 " clip-rule="nonzero"/></clipPath><clipPath id="ae4f3df206"><path d="M 264.957031 39.050781 L 318 52.617188 L 306.847656 96.214844 L 253.808594 82.648438 Z M 264.957031 39.050781 " clip-rule="nonzero"/></clipPath><clipPath id="7f30d7d774"><path d="M 264.957031 39.050781 L 318 52.617188 L 306.847656 96.214844 L 253.808594 82.648438 Z M 264.957031 39.050781 " clip-rule="nonzero"/></clipPath><clipPath id="7d44588686"><path d="M 146.621094 166.796875 L 214.121094 166.796875 L 214.121094 185.949219 L 146.621094 185.949219 Z M 146.621094 166.796875 " clip-rule="nonzero"/></clipPath></defs><rect x="-45" width="540" fill="#ffffff" y="-22.5" height="270" fill-opacity="1"/><rect x="-45" width="540" fill="#ffffff" y="-22.5" height="270" fill-opacity="1"/><rect x="-45" width="540" fill="#000000" y="-22.5" height="270" fill-opacity="1"/><g clip-path="url(#56f18d1450)"><path fill="#cbffb9" d="M 378.128906 152.199219 L 445.628906 152.199219 L 445.628906 219.699219 L 378.128906 219.699219 Z M 378.128906 152.199219 " fill-opacity="1" fill-rule="nonzero"/></g><g clip-path="url(#7163b2aa2d)"><path fill="#cbffb9" d="M 378.128906 78.75 L 445.628906 78.75 L 445.628906 146.25 L 378.128906 146.25 Z M 378.128906 78.75 " fill-opacity="1" fill-rule="nonzero"/></g><g clip-path="url(#cae8c91c7d)"><path fill="#cbffb9" d="M 378.128906 5.300781 L 445.628906 5.300781 L 445.628906 72.800781 L 378.128906 72.800781 Z M 378.128906 5.300781 " fill-opacity="1" fill-rule="nonzero"/></g><g clip-path="url(#f993baf47e)"><g clip-path="url(#2e366638bb)"><g clip-path="url(#0013b3e14b)"><g clip-path="url(#19907b05d7)"><path fill="#cbffb9" d="M 287.242188 73.234375 L 287.546875 72.054688 C 287.914062 70.613281 287.046875 69.148438 285.613281 68.78125 C 284.175781 68.414062 282.710938 69.28125 282.34375 70.722656 L 282.039062 71.902344 C 281.671875 73.34375 282.539062 74.808594 283.976562 75.175781 C 285.410156 75.542969 286.875 74.675781 287.242188 73.234375 Z M 287.242188 73.234375 " fill-opacity="1" fill-rule="nonzero"/></g></g></g></g><g clip-path="url(#61d9ee0763)"><g clip-path="url(#7ba67d7472)"><g clip-path="url(#7533d82178)"><g clip-path="url(#8aef1421b6)"><path fill="#cbffb9" d="M 288.660156 75.132812 C 287.597656 76.875 285.507812 77.820312 283.433594 77.289062 C 281.363281 76.761719 279.980469 74.925781 279.886719 72.890625 L 261.96875 68.304688 C 260.839844 68.015625 259.835938 67.480469 258.996094 66.777344 L 255.945312 78.699219 C 255.351562 81.027344 256.765625 83.417969 259.085938 84.011719 L 301.5625 94.878906 C 303.886719 95.472656 306.273438 94.054688 306.867188 91.726562 L 309.917969 79.804688 C 308.839844 80.015625 307.707031 80.003906 306.574219 79.714844 Z M 288.660156 75.132812 " fill-opacity="1" fill-rule="nonzero"/></g></g></g></g><g clip-path="url(#f2d3a9caf9)"><g clip-path="url(#a18af5994c)"><g clip-path="url(#ae4f3df206)"><g clip-path="url(#7f30d7d774)"><path fill="#cbffb9" d="M 311.875 58.261719 L 301.738281 55.667969 C 302.105469 51.675781 299.542969 47.882812 295.542969 46.859375 L 287.421875 44.78125 C 283.421875 43.757812 279.355469 45.855469 277.757812 49.535156 L 267.621094 46.941406 C 265.203125 46.324219 262.734375 47.722656 262.140625 50.050781 L 259.640625 59.820312 C 259.042969 62.15625 260.449219 64.535156 262.78125 65.132812 L 280.5 69.664062 C 280.871094 68.460938 281.671875 67.5 282.699219 66.921875 C 282.730469 66.902344 282.765625 66.890625 282.796875 66.875 C 283.023438 66.753906 283.253906 66.644531 283.496094 66.558594 C 283.585938 66.527344 283.675781 66.515625 283.765625 66.492188 C 283.960938 66.4375 284.15625 66.375 284.363281 66.347656 C 284.523438 66.324219 284.6875 66.328125 284.851562 66.324219 C 284.992188 66.316406 285.128906 66.296875 285.273438 66.304688 C 285.582031 66.320312 285.894531 66.367188 286.207031 66.445312 C 286.519531 66.527344 286.816406 66.636719 287.09375 66.769531 C 287.222656 66.832031 287.335938 66.917969 287.457031 66.988281 C 287.597656 67.074219 287.742188 67.148438 287.871094 67.246094 C 288.035156 67.371094 288.179688 67.515625 288.324219 67.65625 C 288.390625 67.722656 288.464844 67.777344 288.527344 67.847656 C 288.703125 68.035156 288.851562 68.242188 288.988281 68.457031 C 289.011719 68.488281 289.035156 68.515625 289.054688 68.546875 C 289.679688 69.550781 289.917969 70.777344 289.667969 72.011719 L 307.386719 76.542969 C 309.71875 77.140625 312.09375 75.730469 312.691406 73.390625 L 315.191406 63.621094 C 315.789062 61.292969 314.296875 58.878906 311.875 58.261719 Z M 281.824219 50.574219 C 282.78125 49.082031 284.601562 48.28125 286.40625 48.742188 L 294.53125 50.820312 C 296.335938 51.285156 297.550781 52.859375 297.671875 54.628906 Z M 281.824219 50.574219 " fill-opacity="1" fill-rule="nonzero"/></g></g></g></g><g clip-path="url(#7d44588686)"><path fill="#cbffb9" d="M 146.621094 166.796875 L 214.121094 166.796875 L 214.121094 185.78125 L 146.621094 185.78125 Z M 146.621094 166.796875 " fill-opacity="1" fill-rule="nonzero"/></g><g fill="#ffffff" fill-opacity="1"><g transform="translate(30.261686, 72.900012)"><g><path d="M 8.765625 0 L 5.140625 0 L 5.140625 -14.109375 L 0.484375 -14.109375 L 0.484375 -17.140625 L 13.421875 -17.140625 L 13.421875 -14.109375 L 8.765625 -14.109375 Z M 8.765625 0 "/></g></g><g transform="translate(44.160123, 72.900012)"><g><path d="M 4.71875 -6.578125 C 4.71875 -5.273438 4.929688 -4.289062 5.359375 -3.625 C 5.785156 -2.96875 6.476562 -2.640625 7.4375 -2.640625 C 8.394531 -2.640625 9.082031 -2.96875 9.5 -3.625 C 9.914062 -4.289062 10.125 -5.273438 10.125 -6.578125 C 10.125 -7.867188 9.910156 -8.835938 9.484375 -9.484375 C 9.066406 -10.140625 8.378906 -10.46875 7.421875 -10.46875 C 6.460938 -10.46875 5.769531 -10.144531 5.34375 -9.5 C 4.925781 -8.851562 4.71875 -7.878906 4.71875 -6.578125 Z M 13.78125 -6.578125 C 13.78125 -4.441406 13.21875 -2.769531 12.09375 -1.5625 C 10.96875 -0.363281 9.398438 0.234375 7.390625 0.234375 C 6.140625 0.234375 5.03125 -0.0390625 4.0625 -0.59375 C 3.101562 -1.144531 2.363281 -1.9375 1.84375 -2.96875 C 1.332031 -4 1.078125 -5.203125 1.078125 -6.578125 C 1.078125 -8.710938 1.632812 -10.375 2.75 -11.5625 C 3.875 -12.75 5.445312 -13.34375 7.46875 -13.34375 C 8.726562 -13.34375 9.835938 -13.066406 10.796875 -12.515625 C 11.753906 -11.972656 12.488281 -11.191406 13 -10.171875 C 13.519531 -9.148438 13.78125 -7.953125 13.78125 -6.578125 Z M 13.78125 -6.578125 "/></g></g><g transform="translate(59.019497, 72.900012)"><g><path d="M 11.15625 0 L 10.671875 -1.671875 L 10.484375 -1.671875 C 10.109375 -1.066406 9.566406 -0.597656 8.859375 -0.265625 C 8.160156 0.0664062 7.359375 0.234375 6.453125 0.234375 C 4.921875 0.234375 3.765625 -0.175781 2.984375 -1 C 2.203125 -1.820312 1.8125 -3.007812 1.8125 -4.5625 L 1.8125 -13.109375 L 5.375 -13.109375 L 5.375 -5.453125 C 5.375 -4.503906 5.539062 -3.789062 5.875 -3.3125 C 6.21875 -2.84375 6.753906 -2.609375 7.484375 -2.609375 C 8.484375 -2.609375 9.207031 -2.941406 9.65625 -3.609375 C 10.101562 -4.285156 10.328125 -5.394531 10.328125 -6.9375 L 10.328125 -13.109375 L 13.90625 -13.109375 L 13.90625 0 Z M 11.15625 0 "/></g></g><g transform="translate(74.792934, 72.900012)"><g><path d="M 7.390625 -2.609375 C 8.015625 -2.609375 8.765625 -2.75 9.640625 -3.03125 L 9.640625 -0.359375 C 8.753906 0.0351562 7.660156 0.234375 6.359375 0.234375 C 4.929688 0.234375 3.890625 -0.125 3.234375 -0.84375 C 2.585938 -1.570312 2.265625 -2.660156 2.265625 -4.109375 L 2.265625 -10.421875 L 0.546875 -10.421875 L 0.546875 -11.9375 L 2.515625 -13.125 L 3.546875 -15.890625 L 5.84375 -15.890625 L 5.84375 -13.109375 L 9.5 -13.109375 L 9.5 -10.421875 L 5.84375 -10.421875 L 5.84375 -4.109375 C 5.84375 -3.597656 5.984375 -3.21875 6.265625 -2.96875 C 6.546875 -2.726562 6.921875 -2.609375 7.390625 -2.609375 Z M 7.390625 -2.609375 "/></g></g><g transform="translate(85.210902, 72.900012)"><g><path d="M 7.296875 -10.8125 C 6.546875 -10.8125 5.953125 -10.566406 5.515625 -10.078125 C 5.085938 -9.597656 4.84375 -8.921875 4.78125 -8.046875 L 9.796875 -8.046875 C 9.785156 -8.921875 9.554688 -9.597656 9.109375 -10.078125 C 8.660156 -10.566406 8.054688 -10.8125 7.296875 -10.8125 Z M 7.8125 0.234375 C 5.695312 0.234375 4.046875 -0.347656 2.859375 -1.515625 C 1.671875 -2.679688 1.078125 -4.328125 1.078125 -6.453125 C 1.078125 -8.648438 1.625 -10.347656 2.71875 -11.546875 C 3.820312 -12.742188 5.34375 -13.34375 7.28125 -13.34375 C 9.132812 -13.34375 10.578125 -12.816406 11.609375 -11.765625 C 12.640625 -10.710938 13.15625 -9.253906 13.15625 -7.390625 L 13.15625 -5.65625 L 4.703125 -5.65625 C 4.742188 -4.644531 5.046875 -3.851562 5.609375 -3.28125 C 6.171875 -2.707031 6.957031 -2.421875 7.96875 -2.421875 C 8.757812 -2.421875 9.503906 -2.503906 10.203125 -2.671875 C 10.910156 -2.835938 11.644531 -3.097656 12.40625 -3.453125 L 12.40625 -0.6875 C 11.78125 -0.375 11.113281 -0.144531 10.40625 0 C 9.695312 0.15625 8.832031 0.234375 7.8125 0.234375 Z M 7.8125 0.234375 "/></g></g><g transform="translate(99.390589, 72.900012)"><g><path d="M 11.015625 -3.890625 C 11.015625 -2.546875 10.546875 -1.519531 9.609375 -0.8125 C 8.679688 -0.113281 7.285156 0.234375 5.421875 0.234375 C 4.472656 0.234375 3.660156 0.164062 2.984375 0.03125 C 2.316406 -0.09375 1.691406 -0.28125 1.109375 -0.53125 L 1.109375 -3.484375 C 1.765625 -3.171875 2.507812 -2.90625 3.34375 -2.6875 C 4.175781 -2.476562 4.910156 -2.375 5.546875 -2.375 C 6.835938 -2.375 7.484375 -2.75 7.484375 -3.5 C 7.484375 -3.78125 7.394531 -4.007812 7.21875 -4.1875 C 7.050781 -4.363281 6.753906 -4.5625 6.328125 -4.78125 C 5.910156 -5.007812 5.351562 -5.269531 4.65625 -5.5625 C 3.644531 -5.988281 2.898438 -6.378906 2.421875 -6.734375 C 1.953125 -7.097656 1.609375 -7.507812 1.390625 -7.96875 C 1.179688 -8.4375 1.078125 -9.007812 1.078125 -9.6875 C 1.078125 -10.851562 1.523438 -11.753906 2.421875 -12.390625 C 3.328125 -13.023438 4.609375 -13.34375 6.265625 -13.34375 C 7.847656 -13.34375 9.382812 -13 10.875 -12.3125 L 9.796875 -9.734375 C 9.140625 -10.015625 8.523438 -10.242188 7.953125 -10.421875 C 7.390625 -10.609375 6.8125 -10.703125 6.21875 -10.703125 C 5.15625 -10.703125 4.625 -10.414062 4.625 -9.84375 C 4.625 -9.519531 4.796875 -9.238281 5.140625 -9 C 5.484375 -8.769531 6.226562 -8.425781 7.375 -7.96875 C 8.394531 -7.550781 9.144531 -7.160156 9.625 -6.796875 C 10.101562 -6.441406 10.453125 -6.03125 10.671875 -5.5625 C 10.898438 -5.09375 11.015625 -4.535156 11.015625 -3.890625 Z M 11.015625 -3.890625 "/></g></g><g transform="translate(111.320276, 72.900012)"><g/></g><g transform="translate(117.554651, 72.900012)"><g><path d="M 5.453125 0 L 1.875 0 L 1.875 -18.234375 L 5.453125 -18.234375 Z M 5.453125 0 "/></g></g><g transform="translate(124.878869, 72.900012)"><g><path d="M 7.296875 -10.8125 C 6.546875 -10.8125 5.953125 -10.566406 5.515625 -10.078125 C 5.085938 -9.597656 4.84375 -8.921875 4.78125 -8.046875 L 9.796875 -8.046875 C 9.785156 -8.921875 9.554688 -9.597656 9.109375 -10.078125 C 8.660156 -10.566406 8.054688 -10.8125 7.296875 -10.8125 Z M 7.8125 0.234375 C 5.695312 0.234375 4.046875 -0.347656 2.859375 -1.515625 C 1.671875 -2.679688 1.078125 -4.328125 1.078125 -6.453125 C 1.078125 -8.648438 1.625 -10.347656 2.71875 -11.546875 C 3.820312 -12.742188 5.34375 -13.34375 7.28125 -13.34375 C 9.132812 -13.34375 10.578125 -12.816406 11.609375 -11.765625 C 12.640625 -10.710938 13.15625 -9.253906 13.15625 -7.390625 L 13.15625 -5.65625 L 4.703125 -5.65625 C 4.742188 -4.644531 5.046875 -3.851562 5.609375 -3.28125 C 6.171875 -2.707031 6.957031 -2.421875 7.96875 -2.421875 C 8.757812 -2.421875 9.503906 -2.503906 10.203125 -2.671875 C 10.910156 -2.835938 11.644531 -3.097656 12.40625 -3.453125 L 12.40625 -0.6875 C 11.78125 -0.375 11.113281 -0.144531 10.40625 0 C 9.695312 0.15625 8.832031 0.234375 7.8125 0.234375 Z M 7.8125 0.234375 "/></g></g><g transform="translate(139.058556, 72.900012)"><g><path d="M 11.015625 -3.890625 C 11.015625 -2.546875 10.546875 -1.519531 9.609375 -0.8125 C 8.679688 -0.113281 7.285156 0.234375 5.421875 0.234375 C 4.472656 0.234375 3.660156 0.164062 2.984375 0.03125 C 2.316406 -0.09375 1.691406 -0.28125 1.109375 -0.53125 L 1.109375 -3.484375 C 1.765625 -3.171875 2.507812 -2.90625 3.34375 -2.6875 C 4.175781 -2.476562 4.910156 -2.375 5.546875 -2.375 C 6.835938 -2.375 7.484375 -2.75 7.484375 -3.5 C 7.484375 -3.78125 7.394531 -4.007812 7.21875 -4.1875 C 7.050781 -4.363281 6.753906 -4.5625 6.328125 -4.78125 C 5.910156 -5.007812 5.351562 -5.269531 4.65625 -5.5625 C 3.644531 -5.988281 2.898438 -6.378906 2.421875 -6.734375 C 1.953125 -7.097656 1.609375 -7.507812 1.390625 -7.96875 C 1.179688 -8.4375 1.078125 -9.007812 1.078125 -9.6875 C 1.078125 -10.851562 1.523438 -11.753906 2.421875 -12.390625 C 3.328125 -13.023438 4.609375 -13.34375 6.265625 -13.34375 C 7.847656 -13.34375 9.382812 -13 10.875 -12.3125 L 9.796875 -9.734375 C 9.140625 -10.015625 8.523438 -10.242188 7.953125 -10.421875 C 7.390625 -10.609375 6.8125 -10.703125 6.21875 -10.703125 C 5.15625 -10.703125 4.625 -10.414062 4.625 -9.84375 C 4.625 -9.519531 4.796875 -9.238281 5.140625 -9 C 5.484375 -8.769531 6.226562 -8.425781 7.375 -7.96875 C 8.394531 -7.550781 9.144531 -7.160156 9.625 -6.796875 C 10.101562 -6.441406 10.453125 -6.03125 10.671875 -5.5625 C 10.898438 -5.09375 11.015625 -4.535156 11.015625 -3.890625 Z M 11.015625 -3.890625 "/></g></g><g transform="translate(150.988243, 72.900012)"><g/></g><g transform="translate(157.222618, 72.900012)"><g><path d="M 10.203125 0 L 9.5 -1.78125 L 9.40625 -1.78125 C 8.8125 -1.019531 8.191406 -0.492188 7.546875 -0.203125 C 6.910156 0.0859375 6.082031 0.234375 5.0625 0.234375 C 3.800781 0.234375 2.8125 -0.125 2.09375 -0.84375 C 1.375 -1.5625 1.015625 -2.585938 1.015625 -3.921875 C 1.015625 -5.304688 1.5 -6.328125 2.46875 -6.984375 C 3.4375 -7.648438 4.90625 -8.019531 6.875 -8.09375 L 9.140625 -8.15625 L 9.140625 -8.734375 C 9.140625 -10.054688 8.460938 -10.71875 7.109375 -10.71875 C 6.054688 -10.71875 4.820312 -10.40625 3.40625 -9.78125 L 2.234375 -12.1875 C 3.734375 -12.976562 5.40625 -13.375 7.25 -13.375 C 9 -13.375 10.34375 -12.988281 11.28125 -12.21875 C 12.21875 -11.457031 12.6875 -10.296875 12.6875 -8.734375 L 12.6875 0 Z M 9.140625 -6.078125 L 7.765625 -6.03125 C 6.722656 -6 5.945312 -5.8125 5.4375 -5.46875 C 4.925781 -5.125 4.671875 -4.597656 4.671875 -3.890625 C 4.671875 -2.878906 5.25 -2.375 6.40625 -2.375 C 7.238281 -2.375 7.898438 -2.613281 8.390625 -3.09375 C 8.890625 -3.570312 9.140625 -4.207031 9.140625 -5 Z M 9.140625 -6.078125 "/></g></g><g transform="translate(171.718711, 72.900012)"><g><path d="M 9.125 -10.421875 L 6.03125 -10.421875 L 6.03125 0 L 2.453125 0 L 2.453125 -10.421875 L 0.484375 -10.421875 L 0.484375 -12.140625 L 2.453125 -13.109375 L 2.453125 -14.0625 C 2.453125 -15.550781 2.816406 -16.640625 3.546875 -17.328125 C 4.285156 -18.015625 5.460938 -18.359375 7.078125 -18.359375 C 8.316406 -18.359375 9.414062 -18.175781 10.375 -17.8125 L 9.453125 -15.1875 C 8.734375 -15.414062 8.070312 -15.53125 7.46875 -15.53125 C 6.957031 -15.53125 6.585938 -15.378906 6.359375 -15.078125 C 6.140625 -14.773438 6.03125 -14.390625 6.03125 -13.921875 L 6.03125 -13.109375 L 9.125 -13.109375 Z M 9.125 -10.421875 "/></g></g><g transform="translate(181.01168, 72.900012)"><g><path d="M 9.125 -10.421875 L 6.03125 -10.421875 L 6.03125 0 L 2.453125 0 L 2.453125 -10.421875 L 0.484375 -10.421875 L 0.484375 -12.140625 L 2.453125 -13.109375 L 2.453125 -14.0625 C 2.453125 -15.550781 2.816406 -16.640625 3.546875 -17.328125 C 4.285156 -18.015625 5.460938 -18.359375 7.078125 -18.359375 C 8.316406 -18.359375 9.414062 -18.175781 10.375 -17.8125 L 9.453125 -15.1875 C 8.734375 -15.414062 8.070312 -15.53125 7.46875 -15.53125 C 6.957031 -15.53125 6.585938 -15.378906 6.359375 -15.078125 C 6.140625 -14.773438 6.03125 -14.390625 6.03125 -13.921875 L 6.03125 -13.109375 L 9.125 -13.109375 Z M 9.125 -10.421875 "/></g></g><g transform="translate(190.304648, 72.900012)"><g><path d="M 10.203125 0 L 9.5 -1.78125 L 9.40625 -1.78125 C 8.8125 -1.019531 8.191406 -0.492188 7.546875 -0.203125 C 6.910156 0.0859375 6.082031 0.234375 5.0625 0.234375 C 3.800781 0.234375 2.8125 -0.125 2.09375 -0.84375 C 1.375 -1.5625 1.015625 -2.585938 1.015625 -3.921875 C 1.015625 -5.304688 1.5 -6.328125 2.46875 -6.984375 C 3.4375 -7.648438 4.90625 -8.019531 6.875 -8.09375 L 9.140625 -8.15625 L 9.140625 -8.734375 C 9.140625 -10.054688 8.460938 -10.71875 7.109375 -10.71875 C 6.054688 -10.71875 4.820312 -10.40625 3.40625 -9.78125 L 2.234375 -12.1875 C 3.734375 -12.976562 5.40625 -13.375 7.25 -13.375 C 9 -13.375 10.34375 -12.988281 11.28125 -12.21875 C 12.21875 -11.457031 12.6875 -10.296875 12.6875 -8.734375 L 12.6875 0 Z M 9.140625 -6.078125 L 7.765625 -6.03125 C 6.722656 -6 5.945312 -5.8125 5.4375 -5.46875 C 4.925781 -5.125 4.671875 -4.597656 4.671875 -3.890625 C 4.671875 -2.878906 5.25 -2.375 6.40625 -2.375 C 7.238281 -2.375 7.898438 -2.613281 8.390625 -3.09375 C 8.890625 -3.570312 9.140625 -4.207031 9.140625 -5 Z M 9.140625 -6.078125 "/></g></g><g transform="translate(204.800741, 72.900012)"><g><path d="M 1.71875 -16.484375 C 1.71875 -17.648438 2.367188 -18.234375 3.671875 -18.234375 C 4.960938 -18.234375 5.609375 -17.648438 5.609375 -16.484375 C 5.609375 -15.929688 5.445312 -15.5 5.125 -15.1875 C 4.800781 -14.882812 4.316406 -14.734375 3.671875 -14.734375 C 2.367188 -14.734375 1.71875 -15.316406 1.71875 -16.484375 Z M 5.453125 0 L 1.875 0 L 1.875 -13.109375 L 5.453125 -13.109375 Z M 5.453125 0 "/></g></g><g transform="translate(212.12496, 72.900012)"><g><path d="M 9.1875 -13.34375 C 9.675781 -13.34375 10.078125 -13.3125 10.390625 -13.25 L 10.125 -9.890625 C 9.832031 -9.972656 9.484375 -10.015625 9.078125 -10.015625 C 7.929688 -10.015625 7.039062 -9.71875 6.40625 -9.125 C 5.769531 -8.539062 5.453125 -7.722656 5.453125 -6.671875 L 5.453125 0 L 1.875 0 L 1.875 -13.109375 L 4.578125 -13.109375 L 5.109375 -10.90625 L 5.28125 -10.90625 C 5.6875 -11.632812 6.234375 -12.222656 6.921875 -12.671875 C 7.617188 -13.117188 8.375 -13.34375 9.1875 -13.34375 Z M 9.1875 -13.34375 "/></g></g><g transform="translate(223.023397, 72.900012)"><g><path d="M 7.296875 -10.8125 C 6.546875 -10.8125 5.953125 -10.566406 5.515625 -10.078125 C 5.085938 -9.597656 4.84375 -8.921875 4.78125 -8.046875 L 9.796875 -8.046875 C 9.785156 -8.921875 9.554688 -9.597656 9.109375 -10.078125 C 8.660156 -10.566406 8.054688 -10.8125 7.296875 -10.8125 Z M 7.8125 0.234375 C 5.695312 0.234375 4.046875 -0.347656 2.859375 -1.515625 C 1.671875 -2.679688 1.078125 -4.328125 1.078125 -6.453125 C 1.078125 -8.648438 1.625 -10.347656 2.71875 -11.546875 C 3.820312 -12.742188 5.34375 -13.34375 7.28125 -13.34375 C 9.132812 -13.34375 10.578125 -12.816406 11.609375 -11.765625 C 12.640625 -10.710938 13.15625 -9.253906 13.15625 -7.390625 L 13.15625 -5.65625 L 4.703125 -5.65625 C 4.742188 -4.644531 5.046875 -3.851562 5.609375 -3.28125 C 6.171875 -2.707031 6.957031 -2.421875 7.96875 -2.421875 C 8.757812 -2.421875 9.503906 -2.503906 10.203125 -2.671875 C 10.910156 -2.835938 11.644531 -3.097656 12.40625 -3.453125 L 12.40625 -0.6875 C 11.78125 -0.375 11.113281 -0.144531 10.40625 0 C 9.695312 0.15625 8.832031 0.234375 7.8125 0.234375 Z M 7.8125 0.234375 "/></g></g><g transform="translate(237.203083, 72.900012)"><g><path d="M 11.015625 -3.890625 C 11.015625 -2.546875 10.546875 -1.519531 9.609375 -0.8125 C 8.679688 -0.113281 7.285156 0.234375 5.421875 0.234375 C 4.472656 0.234375 3.660156 0.164062 2.984375 0.03125 C 2.316406 -0.09375 1.691406 -0.28125 1.109375 -0.53125 L 1.109375 -3.484375 C 1.765625 -3.171875 2.507812 -2.90625 3.34375 -2.6875 C 4.175781 -2.476562 4.910156 -2.375 5.546875 -2.375 C 6.835938 -2.375 7.484375 -2.75 7.484375 -3.5 C 7.484375 -3.78125 7.394531 -4.007812 7.21875 -4.1875 C 7.050781 -4.363281 6.753906 -4.5625 6.328125 -4.78125 C 5.910156 -5.007812 5.351562 -5.269531 4.65625 -5.5625 C 3.644531 -5.988281 2.898438 -6.378906 2.421875 -6.734375 C 1.953125 -7.097656 1.609375 -7.507812 1.390625 -7.96875 C 1.179688 -8.4375 1.078125 -9.007812 1.078125 -9.6875 C 1.078125 -10.851562 1.523438 -11.753906 2.421875 -12.390625 C 3.328125 -13.023438 4.609375 -13.34375 6.265625 -13.34375 C 7.847656 -13.34375 9.382812 -13 10.875 -12.3125 L 9.796875 -9.734375 C 9.140625 -10.015625 8.523438 -10.242188 7.953125 -10.421875 C 7.390625 -10.609375 6.8125 -10.703125 6.21875 -10.703125 C 5.15625 -10.703125 4.625 -10.414062 4.625 -9.84375 C 4.625 -9.519531 4.796875 -9.238281 5.140625 -9 C 5.484375 -8.769531 6.226562 -8.425781 7.375 -7.96875 C 8.394531 -7.550781 9.144531 -7.160156 9.625 -6.796875 C 10.101562 -6.441406 10.453125 -6.03125 10.671875 -5.5625 C 10.898438 -5.09375 11.015625 -4.535156 11.015625 -3.890625 Z M 11.015625 -3.890625 "/></g></g></g><g fill="#000000" fill-opacity="1"><g transform="translate(166.481931, 181.081968)"><g><path d="M 6.8125 -9.78125 L 8.90625 -9.78125 L 5.578125 0 L 3.3125 0 L 0 -9.78125 L 2.09375 -9.78125 L 3.9375 -3.96875 C 4.039062 -3.625 4.144531 -3.222656 4.25 -2.765625 C 4.363281 -2.304688 4.429688 -1.988281 4.453125 -1.8125 C 4.503906 -2.21875 4.671875 -2.9375 4.953125 -3.96875 Z M 6.8125 -9.78125 "/></g></g><g transform="translate(175.383009, 181.081968)"><g><path d="M 2.703125 -3.75 C 2.703125 -3.007812 2.820312 -2.445312 3.0625 -2.0625 C 3.300781 -1.6875 3.695312 -1.5 4.25 -1.5 C 4.789062 -1.5 5.179688 -1.6875 5.421875 -2.0625 C 5.660156 -2.445312 5.78125 -3.007812 5.78125 -3.75 C 5.78125 -4.488281 5.660156 -5.039062 5.421875 -5.40625 C 5.179688 -5.78125 4.785156 -5.96875 4.234375 -5.96875 C 3.691406 -5.96875 3.300781 -5.785156 3.0625 -5.421875 C 2.820312 -5.054688 2.703125 -4.5 2.703125 -3.75 Z M 7.875 -3.75 C 7.875 -2.53125 7.550781 -1.578125 6.90625 -0.890625 C 6.257812 -0.203125 5.363281 0.140625 4.21875 0.140625 C 3.5 0.140625 2.863281 -0.015625 2.3125 -0.328125 C 1.769531 -0.648438 1.347656 -1.101562 1.046875 -1.6875 C 0.753906 -2.28125 0.609375 -2.96875 0.609375 -3.75 C 0.609375 -4.976562 0.925781 -5.929688 1.5625 -6.609375 C 2.207031 -7.285156 3.109375 -7.625 4.265625 -7.625 C 4.984375 -7.625 5.613281 -7.46875 6.15625 -7.15625 C 6.707031 -6.84375 7.128906 -6.394531 7.421875 -5.8125 C 7.722656 -5.226562 7.875 -4.539062 7.875 -3.75 Z M 7.875 -3.75 "/></g></g><g transform="translate(183.862774, 181.081968)"><g><path d="M 0.984375 -9.421875 C 0.984375 -10.078125 1.351562 -10.40625 2.09375 -10.40625 C 2.832031 -10.40625 3.203125 -10.078125 3.203125 -9.421875 C 3.203125 -9.097656 3.109375 -8.847656 2.921875 -8.671875 C 2.742188 -8.492188 2.46875 -8.40625 2.09375 -8.40625 C 1.351562 -8.40625 0.984375 -8.742188 0.984375 -9.421875 Z M 3.109375 0 L 1.078125 0 L 1.078125 -7.484375 L 3.109375 -7.484375 Z M 3.109375 0 "/></g></g><g transform="translate(188.042469, 181.081968)"><g><path d="M 5.25 -7.625 C 5.519531 -7.625 5.75 -7.601562 5.9375 -7.5625 L 5.78125 -5.640625 C 5.613281 -5.691406 5.410156 -5.71875 5.171875 -5.71875 C 4.523438 -5.71875 4.019531 -5.546875 3.65625 -5.203125 C 3.289062 -4.867188 3.109375 -4.40625 3.109375 -3.8125 L 3.109375 0 L 1.078125 0 L 1.078125 -7.484375 L 2.609375 -7.484375 L 2.921875 -6.21875 L 3.015625 -6.21875 C 3.242188 -6.644531 3.554688 -6.984375 3.953125 -7.234375 C 4.347656 -7.492188 4.78125 -7.625 5.25 -7.625 Z M 5.25 -7.625 "/></g></g></g></svg>