<svg xmlns="http://www.w3.org/2000/svg" xmlns:xlink="http://www.w3.org/1999/xlink" width="600" zoomAndPan="magnify" viewBox="0 0 450 225" height="300" preserveAspectRatio="xMidYMid meet" version="1.0"><defs><g/><clipPath id="fbae45951a"><path d="M 378.128906 152.199219 L 445.628906 152.199219 L 445.628906 219.699219 L 378.128906 219.699219 Z M 378.128906 152.199219 " clip-rule="nonzero"/></clipPath><clipPath id="79e6d835dd"><path d="M 378.128906 78.75 L 445.628906 78.75 L 445.628906 146.25 L 378.128906 146.25 Z M 378.128906 78.75 " clip-rule="nonzero"/></clipPath><clipPath id="4e759a1d10"><path d="M 378.128906 5.300781 L 445.628906 5.300781 L 445.628906 72.800781 L 378.128906 72.800781 Z M 378.128906 5.300781 " clip-rule="nonzero"/></clipPath></defs><rect x="-45" width="540" fill="#ffffff" y="-22.5" height="270" fill-opacity="1"/><rect x="-45" width="540" fill="#000000" y="-22.5" height="270" fill-opacity="1"/><g clip-path="url(#fbae45951a)"><path fill="#cbffb9" d="M 378.128906 152.199219 L 445.628906 152.199219 L 445.628906 219.699219 L 378.128906 219.699219 L 378.128906 152.199219 " fill-opacity="1" fill-rule="nonzero"/></g><g clip-path="url(#79e6d835dd)"><path fill="#cbffb9" d="M 378.128906 78.75 L 445.628906 78.75 L 445.628906 146.25 L 378.128906 146.25 L 378.128906 78.75 " fill-opacity="1" fill-rule="nonzero"/></g><g clip-path="url(#4e759a1d10)"><path fill="#cbffb9" d="M 378.128906 5.300781 L 445.628906 5.300781 L 445.628906 72.800781 L 378.128906 72.800781 L 378.128906 5.300781 " fill-opacity="1" fill-rule="nonzero"/></g><g fill="#ffffff" fill-opacity="1"><g transform="translate(30.726561, 120.750019)"><g><path d="M 2.15625 0 L 2.15625 -17.140625 L 5.796875 -17.140625 L 5.796875 -3 L 12.734375 -3 L 12.734375 0 Z M 2.15625 0 "/></g></g><g transform="translate(44.285155, 120.750019)"><g><path d="M 7.296875 -10.8125 C 6.546875 -10.8125 5.953125 -10.566406 5.515625 -10.078125 C 5.085938 -9.597656 4.84375 -8.921875 4.78125 -8.046875 L 9.796875 -8.046875 C 9.785156 -8.921875 9.554688 -9.597656 9.109375 -10.078125 C 8.660156 -10.566406 8.054688 -10.8125 7.296875 -10.8125 Z M 7.8125 0.234375 C 5.695312 0.234375 4.046875 -0.347656 2.859375 -1.515625 C 1.671875 -2.679688 1.078125 -4.328125 1.078125 -6.453125 C 1.078125 -8.648438 1.625 -10.347656 2.71875 -11.546875 C 3.820312 -12.742188 5.34375 -13.34375 7.28125 -13.34375 C 9.132812 -13.34375 10.578125 -12.816406 11.609375 -11.765625 C 12.640625 -10.710938 13.15625 -9.253906 13.15625 -7.390625 L 13.15625 -5.65625 L 4.703125 -5.65625 C 4.742188 -4.644531 5.046875 -3.851562 5.609375 -3.28125 C 6.171875 -2.707031 6.957031 -2.421875 7.96875 -2.421875 C 8.757812 -2.421875 9.503906 -2.503906 10.203125 -2.671875 C 10.910156 -2.835938 11.644531 -3.097656 12.40625 -3.453125 L 12.40625 -0.6875 C 11.78125 -0.375 11.113281 -0.144531 10.40625 0 C 9.695312 0.15625 8.832031 0.234375 7.8125 0.234375 Z M 7.8125 0.234375 "/></g></g><g transform="translate(58.464841, 120.750019)"><g><path d="M 11.015625 -3.890625 C 11.015625 -2.546875 10.546875 -1.519531 9.609375 -0.8125 C 8.679688 -0.113281 7.285156 0.234375 5.421875 0.234375 C 4.472656 0.234375 3.660156 0.164062 2.984375 0.03125 C 2.316406 -0.09375 1.691406 -0.28125 1.109375 -0.53125 L 1.109375 -3.484375 C 1.765625 -3.171875 2.507812 -2.90625 3.34375 -2.6875 C 4.175781 -2.476562 4.910156 -2.375 5.546875 -2.375 C 6.835938 -2.375 7.484375 -2.75 7.484375 -3.5 C 7.484375 -3.78125 7.394531 -4.007812 7.21875 -4.1875 C 7.050781 -4.363281 6.753906 -4.5625 6.328125 -4.78125 C 5.910156 -5.007812 5.351562 -5.269531 4.65625 -5.5625 C 3.644531 -5.988281 2.898438 -6.378906 2.421875 -6.734375 C 1.953125 -7.097656 1.609375 -7.507812 1.390625 -7.96875 C 1.179688 -8.4375 1.078125 -9.007812 1.078125 -9.6875 C 1.078125 -10.851562 1.523438 -11.753906 2.421875 -12.390625 C 3.328125 -13.023438 4.609375 -13.34375 6.265625 -13.34375 C 7.847656 -13.34375 9.382812 -13 10.875 -12.3125 L 9.796875 -9.734375 C 9.140625 -10.015625 8.523438 -10.242188 7.953125 -10.421875 C 7.390625 -10.609375 6.8125 -10.703125 6.21875 -10.703125 C 5.15625 -10.703125 4.625 -10.414062 4.625 -9.84375 C 4.625 -9.519531 4.796875 -9.238281 5.140625 -9 C 5.484375 -8.769531 6.226562 -8.425781 7.375 -7.96875 C 8.394531 -7.550781 9.144531 -7.160156 9.625 -6.796875 C 10.101562 -6.441406 10.453125 -6.03125 10.671875 -5.5625 C 10.898438 -5.09375 11.015625 -4.535156 11.015625 -3.890625 Z M 11.015625 -3.890625 "/></g></g><g transform="translate(70.394528, 120.750019)"><g/></g><g transform="translate(76.628903, 120.750019)"><g><path d="M 10.203125 0 L 9.5 -1.78125 L 9.40625 -1.78125 C 8.8125 -1.019531 8.191406 -0.492188 7.546875 -0.203125 C 6.910156 0.0859375 6.082031 0.234375 5.0625 0.234375 C 3.800781 0.234375 2.8125 -0.125 2.09375 -0.84375 C 1.375 -1.5625 1.015625 -2.585938 1.015625 -3.921875 C 1.015625 -5.304688 1.5 -6.328125 2.46875 -6.984375 C 3.4375 -7.648438 4.90625 -8.019531 6.875 -8.09375 L 9.140625 -8.15625 L 9.140625 -8.734375 C 9.140625 -10.054688 8.460938 -10.71875 7.109375 -10.71875 C 6.054688 -10.71875 4.820312 -10.40625 3.40625 -9.78125 L 2.234375 -12.1875 C 3.734375 -12.976562 5.40625 -13.375 7.25 -13.375 C 9 -13.375 10.34375 -12.988281 11.28125 -12.21875 C 12.21875 -11.457031 12.6875 -10.296875 12.6875 -8.734375 L 12.6875 0 Z M 9.140625 -6.078125 L 7.765625 -6.03125 C 6.722656 -6 5.945312 -5.8125 5.4375 -5.46875 C 4.925781 -5.125 4.671875 -4.597656 4.671875 -3.890625 C 4.671875 -2.878906 5.25 -2.375 6.40625 -2.375 C 7.238281 -2.375 7.898438 -2.613281 8.390625 -3.09375 C 8.890625 -3.570312 9.140625 -4.207031 9.140625 -5 Z M 9.140625 -6.078125 "/></g></g><g transform="translate(91.124996, 120.750019)"><g><path d="M 9.078125 0.234375 C 7.535156 0.234375 6.328125 -0.320312 5.453125 -1.4375 L 5.265625 -1.4375 C 5.390625 -0.34375 5.453125 0.285156 5.453125 0.453125 L 5.453125 5.765625 L 1.875 5.765625 L 1.875 -13.109375 L 4.78125 -13.109375 L 5.28125 -11.40625 L 5.453125 -11.40625 C 6.285156 -12.695312 7.523438 -13.34375 9.171875 -13.34375 C 10.710938 -13.34375 11.921875 -12.742188 12.796875 -11.546875 C 13.671875 -10.359375 14.109375 -8.703125 14.109375 -6.578125 C 14.109375 -5.179688 13.898438 -3.96875 13.484375 -2.9375 C 13.078125 -1.90625 12.492188 -1.117188 11.734375 -0.578125 C 10.984375 -0.0351562 10.097656 0.234375 9.078125 0.234375 Z M 8.015625 -10.484375 C 7.128906 -10.484375 6.484375 -10.210938 6.078125 -9.671875 C 5.671875 -9.128906 5.460938 -8.234375 5.453125 -6.984375 L 5.453125 -6.59375 C 5.453125 -5.1875 5.660156 -4.175781 6.078125 -3.5625 C 6.492188 -2.957031 7.15625 -2.65625 8.0625 -2.65625 C 9.664062 -2.65625 10.46875 -3.976562 10.46875 -6.625 C 10.46875 -7.914062 10.269531 -8.878906 9.875 -9.515625 C 9.476562 -10.160156 8.859375 -10.484375 8.015625 -10.484375 Z M 8.015625 -10.484375 "/></g></g><g transform="translate(106.312496, 120.750019)"><g><path d="M 9.078125 0.234375 C 7.535156 0.234375 6.328125 -0.320312 5.453125 -1.4375 L 5.265625 -1.4375 C 5.390625 -0.34375 5.453125 0.285156 5.453125 0.453125 L 5.453125 5.765625 L 1.875 5.765625 L 1.875 -13.109375 L 4.78125 -13.109375 L 5.28125 -11.40625 L 5.453125 -11.40625 C 6.285156 -12.695312 7.523438 -13.34375 9.171875 -13.34375 C 10.710938 -13.34375 11.921875 -12.742188 12.796875 -11.546875 C 13.671875 -10.359375 14.109375 -8.703125 14.109375 -6.578125 C 14.109375 -5.179688 13.898438 -3.96875 13.484375 -2.9375 C 13.078125 -1.90625 12.492188 -1.117188 11.734375 -0.578125 C 10.984375 -0.0351562 10.097656 0.234375 9.078125 0.234375 Z M 8.015625 -10.484375 C 7.128906 -10.484375 6.484375 -10.210938 6.078125 -9.671875 C 5.671875 -9.128906 5.460938 -8.234375 5.453125 -6.984375 L 5.453125 -6.59375 C 5.453125 -5.1875 5.660156 -4.175781 6.078125 -3.5625 C 6.492188 -2.957031 7.15625 -2.65625 8.0625 -2.65625 C 9.664062 -2.65625 10.46875 -3.976562 10.46875 -6.625 C 10.46875 -7.914062 10.269531 -8.878906 9.875 -9.515625 C 9.476562 -10.160156 8.859375 -10.484375 8.015625 -10.484375 Z M 8.015625 -10.484375 "/></g></g><g transform="translate(121.499995, 120.750019)"><g><path d="M 4.71875 -6.578125 C 4.71875 -5.273438 4.929688 -4.289062 5.359375 -3.625 C 5.785156 -2.96875 6.476562 -2.640625 7.4375 -2.640625 C 8.394531 -2.640625 9.082031 -2.96875 9.5 -3.625 C 9.914062 -4.289062 10.125 -5.273438 10.125 -6.578125 C 10.125 -7.867188 9.910156 -8.835938 9.484375 -9.484375 C 9.066406 -10.140625 8.378906 -10.46875 7.421875 -10.46875 C 6.460938 -10.46875 5.769531 -10.144531 5.34375 -9.5 C 4.925781 -8.851562 4.71875 -7.878906 4.71875 -6.578125 Z M 13.78125 -6.578125 C 13.78125 -4.441406 13.21875 -2.769531 12.09375 -1.5625 C 10.96875 -0.363281 9.398438 0.234375 7.390625 0.234375 C 6.140625 0.234375 5.03125 -0.0390625 4.0625 -0.59375 C 3.101562 -1.144531 2.363281 -1.9375 1.84375 -2.96875 C 1.332031 -4 1.078125 -5.203125 1.078125 -6.578125 C 1.078125 -8.710938 1.632812 -10.375 2.75 -11.5625 C 3.875 -12.75 5.445312 -13.34375 7.46875 -13.34375 C 8.726562 -13.34375 9.835938 -13.066406 10.796875 -12.515625 C 11.753906 -11.972656 12.488281 -11.191406 13 -10.171875 C 13.519531 -9.148438 13.78125 -7.953125 13.78125 -6.578125 Z M 13.78125 -6.578125 "/></g></g><g transform="translate(136.35937, 120.750019)"><g><path d="M 9.1875 -13.34375 C 9.675781 -13.34375 10.078125 -13.3125 10.390625 -13.25 L 10.125 -9.890625 C 9.832031 -9.972656 9.484375 -10.015625 9.078125 -10.015625 C 7.929688 -10.015625 7.039062 -9.71875 6.40625 -9.125 C 5.769531 -8.539062 5.453125 -7.722656 5.453125 -6.671875 L 5.453125 0 L 1.875 0 L 1.875 -13.109375 L 4.578125 -13.109375 L 5.109375 -10.90625 L 5.28125 -10.90625 C 5.6875 -11.632812 6.234375 -12.222656 6.921875 -12.671875 C 7.617188 -13.117188 8.375 -13.34375 9.1875 -13.34375 Z M 9.1875 -13.34375 "/></g></g><g transform="translate(147.257807, 120.750019)"><g><path d="M 7.390625 -2.609375 C 8.015625 -2.609375 8.765625 -2.75 9.640625 -3.03125 L 9.640625 -0.359375 C 8.753906 0.0351562 7.660156 0.234375 6.359375 0.234375 C 4.929688 0.234375 3.890625 -0.125 3.234375 -0.84375 C 2.585938 -1.570312 2.265625 -2.660156 2.265625 -4.109375 L 2.265625 -10.421875 L 0.546875 -10.421875 L 0.546875 -11.9375 L 2.515625 -13.125 L 3.546875 -15.890625 L 5.84375 -15.890625 L 5.84375 -13.109375 L 9.5 -13.109375 L 9.5 -10.421875 L 5.84375 -10.421875 L 5.84375 -4.109375 C 5.84375 -3.597656 5.984375 -3.21875 6.265625 -2.96875 C 6.546875 -2.726562 6.921875 -2.609375 7.390625 -2.609375 Z M 7.390625 -2.609375 "/></g></g><g transform="translate(157.675775, 120.750019)"><g><path d="M 7.296875 -10.8125 C 6.546875 -10.8125 5.953125 -10.566406 5.515625 -10.078125 C 5.085938 -9.597656 4.84375 -8.921875 4.78125 -8.046875 L 9.796875 -8.046875 C 9.785156 -8.921875 9.554688 -9.597656 9.109375 -10.078125 C 8.660156 -10.566406 8.054688 -10.8125 7.296875 -10.8125 Z M 7.8125 0.234375 C 5.695312 0.234375 4.046875 -0.347656 2.859375 -1.515625 C 1.671875 -2.679688 1.078125 -4.328125 1.078125 -6.453125 C 1.078125 -8.648438 1.625 -10.347656 2.71875 -11.546875 C 3.820312 -12.742188 5.34375 -13.34375 7.28125 -13.34375 C 9.132812 -13.34375 10.578125 -12.816406 11.609375 -11.765625 C 12.640625 -10.710938 13.15625 -9.253906 13.15625 -7.390625 L 13.15625 -5.65625 L 4.703125 -5.65625 C 4.742188 -4.644531 5.046875 -3.851562 5.609375 -3.28125 C 6.171875 -2.707031 6.957031 -2.421875 7.96875 -2.421875 C 8.757812 -2.421875 9.503906 -2.503906 10.203125 -2.671875 C 10.910156 -2.835938 11.644531 -3.097656 12.40625 -3.453125 L 12.40625 -0.6875 C 11.78125 -0.375 11.113281 -0.144531 10.40625 0 C 9.695312 0.15625 8.832031 0.234375 7.8125 0.234375 Z M 7.8125 0.234375 "/></g></g><g transform="translate(171.855462, 120.750019)"><g><path d="M 11.15625 0 L 10.671875 -1.671875 L 10.484375 -1.671875 C 10.109375 -1.066406 9.566406 -0.597656 8.859375 -0.265625 C 8.160156 0.0664062 7.359375 0.234375 6.453125 0.234375 C 4.921875 0.234375 3.765625 -0.175781 2.984375 -1 C 2.203125 -1.820312 1.8125 -3.007812 1.8125 -4.5625 L 1.8125 -13.109375 L 5.375 -13.109375 L 5.375 -5.453125 C 5.375 -4.503906 5.539062 -3.789062 5.875 -3.3125 C 6.21875 -2.84375 6.753906 -2.609375 7.484375 -2.609375 C 8.484375 -2.609375 9.207031 -2.941406 9.65625 -3.609375 C 10.101562 -4.285156 10.328125 -5.394531 10.328125 -6.9375 L 10.328125 -13.109375 L 13.90625 -13.109375 L 13.90625 0 Z M 11.15625 0 "/></g></g><g transform="translate(187.628899, 120.750019)"><g><path d="M 9.1875 -13.34375 C 9.675781 -13.34375 10.078125 -13.3125 10.390625 -13.25 L 10.125 -9.890625 C 9.832031 -9.972656 9.484375 -10.015625 9.078125 -10.015625 C 7.929688 -10.015625 7.039062 -9.71875 6.40625 -9.125 C 5.769531 -8.539062 5.453125 -7.722656 5.453125 -6.671875 L 5.453125 0 L 1.875 0 L 1.875 -13.109375 L 4.578125 -13.109375 L 5.109375 -10.90625 L 5.28125 -10.90625 C 5.6875 -11.632812 6.234375 -12.222656 6.921875 -12.671875 C 7.617188 -13.117188 8.375 -13.34375 9.1875 -13.34375 Z M 9.1875 -13.34375 "/></g></g><g transform="translate(198.527336, 120.750019)"><g><path d="M 11.015625 -3.890625 C 11.015625 -2.546875 10.546875 -1.519531 9.609375 -0.8125 C 8.679688 -0.113281 7.285156 0.234375 5.421875 0.234375 C 4.472656 0.234375 3.660156 0.164062 2.984375 0.03125 C 2.316406 -0.09375 1.691406 -0.28125 1.109375 -0.53125 L 1.109375 -3.484375 C 1.765625 -3.171875 2.507812 -2.90625 3.34375 -2.6875 C 4.175781 -2.476562 4.910156 -2.375 5.546875 -2.375 C 6.835938 -2.375 7.484375 -2.75 7.484375 -3.5 C 7.484375 -3.78125 7.394531 -4.007812 7.21875 -4.1875 C 7.050781 -4.363281 6.753906 -4.5625 6.328125 -4.78125 C 5.910156 -5.007812 5.351562 -5.269531 4.65625 -5.5625 C 3.644531 -5.988281 2.898438 -6.378906 2.421875 -6.734375 C 1.953125 -7.097656 1.609375 -7.507812 1.390625 -7.96875 C 1.179688 -8.4375 1.078125 -9.007812 1.078125 -9.6875 C 1.078125 -10.851562 1.523438 -11.753906 2.421875 -12.390625 C 3.328125 -13.023438 4.609375 -13.34375 6.265625 -13.34375 C 7.847656 -13.34375 9.382812 -13 10.875 -12.3125 L 9.796875 -9.734375 C 9.140625 -10.015625 8.523438 -10.242188 7.953125 -10.421875 C 7.390625 -10.609375 6.8125 -10.703125 6.21875 -10.703125 C 5.15625 -10.703125 4.625 -10.414062 4.625 -9.84375 C 4.625 -9.519531 4.796875 -9.238281 5.140625 -9 C 5.484375 -8.769531 6.226562 -8.425781 7.375 -7.96875 C 8.394531 -7.550781 9.144531 -7.160156 9.625 -6.796875 C 10.101562 -6.441406 10.453125 -6.03125 10.671875 -5.5625 C 10.898438 -5.09375 11.015625 -4.535156 11.015625 -3.890625 Z M 11.015625 -3.890625 "/></g></g><g transform="translate(210.457023, 120.750019)"><g/></g><g transform="translate(216.691397, 120.750019)"><g><path d="M 6.03125 0.234375 C 4.488281 0.234375 3.273438 -0.363281 2.390625 -1.5625 C 1.515625 -2.757812 1.078125 -4.414062 1.078125 -6.53125 C 1.078125 -8.675781 1.523438 -10.347656 2.421875 -11.546875 C 3.316406 -12.742188 4.550781 -13.34375 6.125 -13.34375 C 7.769531 -13.34375 9.023438 -12.703125 9.890625 -11.421875 L 10.015625 -11.421875 C 9.828125 -12.398438 9.734375 -13.273438 9.734375 -14.046875 L 9.734375 -18.234375 L 13.328125 -18.234375 L 13.328125 0 L 10.578125 0 L 9.890625 -1.703125 L 9.734375 -1.703125 C 8.921875 -0.410156 7.6875 0.234375 6.03125 0.234375 Z M 7.28125 -2.609375 C 8.195312 -2.609375 8.863281 -2.875 9.28125 -3.40625 C 9.707031 -3.9375 9.941406 -4.84375 9.984375 -6.125 L 9.984375 -6.5 C 9.984375 -7.90625 9.765625 -8.910156 9.328125 -9.515625 C 8.898438 -10.128906 8.195312 -10.4375 7.21875 -10.4375 C 6.425781 -10.4375 5.804688 -10.097656 5.359375 -9.421875 C 4.921875 -8.753906 4.703125 -7.773438 4.703125 -6.484375 C 4.703125 -5.191406 4.921875 -4.222656 5.359375 -3.578125 C 5.804688 -2.929688 6.445312 -2.609375 7.28125 -2.609375 Z M 7.28125 -2.609375 "/></g></g><g transform="translate(231.878897, 120.750019)"><g><path d="M 4.828125 -17.140625 L 4.34375 -10.953125 L 2.046875 -10.953125 L 1.5625 -17.140625 Z M 4.828125 -17.140625 "/></g></g><g transform="translate(238.265615, 120.750019)"><g><path d="M 10.203125 0 L 9.5 -1.78125 L 9.40625 -1.78125 C 8.8125 -1.019531 8.191406 -0.492188 7.546875 -0.203125 C 6.910156 0.0859375 6.082031 0.234375 5.0625 0.234375 C 3.800781 0.234375 2.8125 -0.125 2.09375 -0.84375 C 1.375 -1.5625 1.015625 -2.585938 1.015625 -3.921875 C 1.015625 -5.304688 1.5 -6.328125 2.46875 -6.984375 C 3.4375 -7.648438 4.90625 -8.019531 6.875 -8.09375 L 9.140625 -8.15625 L 9.140625 -8.734375 C 9.140625 -10.054688 8.460938 -10.71875 7.109375 -10.71875 C 6.054688 -10.71875 4.820312 -10.40625 3.40625 -9.78125 L 2.234375 -12.1875 C 3.734375 -12.976562 5.40625 -13.375 7.25 -13.375 C 9 -13.375 10.34375 -12.988281 11.28125 -12.21875 C 12.21875 -11.457031 12.6875 -10.296875 12.6875 -8.734375 L 12.6875 0 Z M 9.140625 -6.078125 L 7.765625 -6.03125 C 6.722656 -6 5.945312 -5.8125 5.4375 -5.46875 C 4.925781 -5.125 4.671875 -4.597656 4.671875 -3.890625 C 4.671875 -2.878906 5.25 -2.375 6.40625 -2.375 C 7.238281 -2.375 7.898438 -2.613281 8.390625 -3.09375 C 8.890625 -3.570312 9.140625 -4.207031 9.140625 -5 Z M 9.140625 -6.078125 "/></g></g><g transform="translate(252.761708, 120.750019)"><g><path d="M 9.125 -10.421875 L 6.03125 -10.421875 L 6.03125 0 L 2.453125 0 L 2.453125 -10.421875 L 0.484375 -10.421875 L 0.484375 -12.140625 L 2.453125 -13.109375 L 2.453125 -14.0625 C 2.453125 -15.550781 2.816406 -16.640625 3.546875 -17.328125 C 4.285156 -18.015625 5.460938 -18.359375 7.078125 -18.359375 C 8.316406 -18.359375 9.414062 -18.175781 10.375 -17.8125 L 9.453125 -15.1875 C 8.734375 -15.414062 8.070312 -15.53125 7.46875 -15.53125 C 6.957031 -15.53125 6.585938 -15.378906 6.359375 -15.078125 C 6.140625 -14.773438 6.03125 -14.390625 6.03125 -13.921875 L 6.03125 -13.109375 L 9.125 -13.109375 Z M 9.125 -10.421875 "/></g></g><g transform="translate(262.054677, 120.750019)"><g><path d="M 9.125 -10.421875 L 6.03125 -10.421875 L 6.03125 0 L 2.453125 0 L 2.453125 -10.421875 L 0.484375 -10.421875 L 0.484375 -12.140625 L 2.453125 -13.109375 L 2.453125 -14.0625 C 2.453125 -15.550781 2.816406 -16.640625 3.546875 -17.328125 C 4.285156 -18.015625 5.460938 -18.359375 7.078125 -18.359375 C 8.316406 -18.359375 9.414062 -18.175781 10.375 -17.8125 L 9.453125 -15.1875 C 8.734375 -15.414062 8.070312 -15.53125 7.46875 -15.53125 C 6.957031 -15.53125 6.585938 -15.378906 6.359375 -15.078125 C 6.140625 -14.773438 6.03125 -14.390625 6.03125 -13.921875 L 6.03125 -13.109375 L 9.125 -13.109375 Z M 9.125 -10.421875 "/></g></g><g transform="translate(271.347645, 120.750019)"><g><path d="M 10.203125 0 L 9.5 -1.78125 L 9.40625 -1.78125 C 8.8125 -1.019531 8.191406 -0.492188 7.546875 -0.203125 C 6.910156 0.0859375 6.082031 0.234375 5.0625 0.234375 C 3.800781 0.234375 2.8125 -0.125 2.09375 -0.84375 C 1.375 -1.5625 1.015625 -2.585938 1.015625 -3.921875 C 1.015625 -5.304688 1.5 -6.328125 2.46875 -6.984375 C 3.4375 -7.648438 4.90625 -8.019531 6.875 -8.09375 L 9.140625 -8.15625 L 9.140625 -8.734375 C 9.140625 -10.054688 8.460938 -10.71875 7.109375 -10.71875 C 6.054688 -10.71875 4.820312 -10.40625 3.40625 -9.78125 L 2.234375 -12.1875 C 3.734375 -12.976562 5.40625 -13.375 7.25 -13.375 C 9 -13.375 10.34375 -12.988281 11.28125 -12.21875 C 12.21875 -11.457031 12.6875 -10.296875 12.6875 -8.734375 L 12.6875 0 Z M 9.140625 -6.078125 L 7.765625 -6.03125 C 6.722656 -6 5.945312 -5.8125 5.4375 -5.46875 C 4.925781 -5.125 4.671875 -4.597656 4.671875 -3.890625 C 4.671875 -2.878906 5.25 -2.375 6.40625 -2.375 C 7.238281 -2.375 7.898438 -2.613281 8.390625 -3.09375 C 8.890625 -3.570312 9.140625 -4.207031 9.140625 -5 Z M 9.140625 -6.078125 "/></g></g><g transform="translate(285.843738, 120.750019)"><g><path d="M 1.71875 -16.484375 C 1.71875 -17.648438 2.367188 -18.234375 3.671875 -18.234375 C 4.960938 -18.234375 5.609375 -17.648438 5.609375 -16.484375 C 5.609375 -15.929688 5.445312 -15.5 5.125 -15.1875 C 4.800781 -14.882812 4.316406 -14.734375 3.671875 -14.734375 C 2.367188 -14.734375 1.71875 -15.316406 1.71875 -16.484375 Z M 5.453125 0 L 1.875 0 L 1.875 -13.109375 L 5.453125 -13.109375 Z M 5.453125 0 "/></g></g><g transform="translate(293.167957, 120.750019)"><g><path d="M 9.1875 -13.34375 C 9.675781 -13.34375 10.078125 -13.3125 10.390625 -13.25 L 10.125 -9.890625 C 9.832031 -9.972656 9.484375 -10.015625 9.078125 -10.015625 C 7.929688 -10.015625 7.039062 -9.71875 6.40625 -9.125 C 5.769531 -8.539062 5.453125 -7.722656 5.453125 -6.671875 L 5.453125 0 L 1.875 0 L 1.875 -13.109375 L 4.578125 -13.109375 L 5.109375 -10.90625 L 5.28125 -10.90625 C 5.6875 -11.632812 6.234375 -12.222656 6.921875 -12.671875 C 7.617188 -13.117188 8.375 -13.34375 9.1875 -13.34375 Z M 9.1875 -13.34375 "/></g></g><g transform="translate(304.066394, 120.750019)"><g><path d="M 7.296875 -10.8125 C 6.546875 -10.8125 5.953125 -10.566406 5.515625 -10.078125 C 5.085938 -9.597656 4.84375 -8.921875 4.78125 -8.046875 L 9.796875 -8.046875 C 9.785156 -8.921875 9.554688 -9.597656 9.109375 -10.078125 C 8.660156 -10.566406 8.054688 -10.8125 7.296875 -10.8125 Z M 7.8125 0.234375 C 5.695312 0.234375 4.046875 -0.347656 2.859375 -1.515625 C 1.671875 -2.679688 1.078125 -4.328125 1.078125 -6.453125 C 1.078125 -8.648438 1.625 -10.347656 2.71875 -11.546875 C 3.820312 -12.742188 5.34375 -13.34375 7.28125 -13.34375 C 9.132812 -13.34375 10.578125 -12.816406 11.609375 -11.765625 C 12.640625 -10.710938 13.15625 -9.253906 13.15625 -7.390625 L 13.15625 -5.65625 L 4.703125 -5.65625 C 4.742188 -4.644531 5.046875 -3.851562 5.609375 -3.28125 C 6.171875 -2.707031 6.957031 -2.421875 7.96875 -2.421875 C 8.757812 -2.421875 9.503906 -2.503906 10.203125 -2.671875 C 10.910156 -2.835938 11.644531 -3.097656 12.40625 -3.453125 L 12.40625 -0.6875 C 11.78125 -0.375 11.113281 -0.144531 10.40625 0 C 9.695312 0.15625 8.832031 0.234375 7.8125 0.234375 Z M 7.8125 0.234375 "/></g></g><g transform="translate(318.246081, 120.750019)"><g><path d="M 11.015625 -3.890625 C 11.015625 -2.546875 10.546875 -1.519531 9.609375 -0.8125 C 8.679688 -0.113281 7.285156 0.234375 5.421875 0.234375 C 4.472656 0.234375 3.660156 0.164062 2.984375 0.03125 C 2.316406 -0.09375 1.691406 -0.28125 1.109375 -0.53125 L 1.109375 -3.484375 C 1.765625 -3.171875 2.507812 -2.90625 3.34375 -2.6875 C 4.175781 -2.476562 4.910156 -2.375 5.546875 -2.375 C 6.835938 -2.375 7.484375 -2.75 7.484375 -3.5 C 7.484375 -3.78125 7.394531 -4.007812 7.21875 -4.1875 C 7.050781 -4.363281 6.753906 -4.5625 6.328125 -4.78125 C 5.910156 -5.007812 5.351562 -5.269531 4.65625 -5.5625 C 3.644531 -5.988281 2.898438 -6.378906 2.421875 -6.734375 C 1.953125 -7.097656 1.609375 -7.507812 1.390625 -7.96875 C 1.179688 -8.4375 1.078125 -9.007812 1.078125 -9.6875 C 1.078125 -10.851562 1.523438 -11.753906 2.421875 -12.390625 C 3.328125 -13.023438 4.609375 -13.34375 6.265625 -13.34375 C 7.847656 -13.34375 9.382812 -13 10.875 -12.3125 L 9.796875 -9.734375 C 9.140625 -10.015625 8.523438 -10.242188 7.953125 -10.421875 C 7.390625 -10.609375 6.8125 -10.703125 6.21875 -10.703125 C 5.15625 -10.703125 4.625 -10.414062 4.625 -9.84375 C 4.625 -9.519531 4.796875 -9.238281 5.140625 -9 C 5.484375 -8.769531 6.226562 -8.425781 7.375 -7.96875 C 8.394531 -7.550781 9.144531 -7.160156 9.625 -6.796875 C 10.101562 -6.441406 10.453125 -6.03125 10.671875 -5.5625 C 10.898438 -5.09375 11.015625 -4.535156 11.015625 -3.890625 Z M 11.015625 -3.890625 "/></g></g></g></svg>