<svg xmlns="http://www.w3.org/2000/svg" xmlns:xlink="http://www.w3.org/1999/xlink" width="600" zoomAndPan="magnify" viewBox="0 0 450 225" height="300" preserveAspectRatio="xMidYMid meet" version="1.0"><defs><g/><clipPath id="a5eefd7551"><path d="M 378.128906 152.199219 L 445.628906 152.199219 L 445.628906 219.699219 L 378.128906 219.699219 Z M 378.128906 152.199219 " clip-rule="nonzero"/></clipPath><clipPath id="70af139b75"><path d="M 378.128906 78.75 L 445.628906 78.75 L 445.628906 146.25 L 378.128906 146.25 Z M 378.128906 78.75 " clip-rule="nonzero"/></clipPath><clipPath id="291ca062c0"><path d="M 378.128906 5.300781 L 445.628906 5.300781 L 445.628906 72.800781 L 378.128906 72.800781 Z M 378.128906 5.300781 " clip-rule="nonzero"/></clipPath><clipPath id="9a8bd53954"><path d="M 265 56 L 289.980469 56 L 289.980469 90 L 265 90 Z M 265 56 " clip-rule="nonzero"/></clipPath><clipPath id="17b401a0cf"><path d="M 229.230469 54 L 260 54 L 260 96 L 229.230469 96 Z M 229.230469 54 " clip-rule="nonzero"/></clipPath><clipPath id="80a5696cef"><path d="M 231 124 L 252 124 L 252 134.601562 L 231 134.601562 Z M 231 124 " clip-rule="nonzero"/></clipPath><clipPath id="51e6d7329b"><path d="M 146.621094 166.796875 L 214.121094 166.796875 L 214.121094 185.949219 L 146.621094 185.949219 Z M 146.621094 166.796875 " clip-rule="nonzero"/></clipPath></defs><rect x="-45" width="540" fill="#ffffff" y="-22.5" height="270" fill-opacity="1"/><rect x="-45" width="540" fill="#000000" y="-22.5" height="270" fill-opacity="1"/><g clip-path="url(#a5eefd7551)"><path fill="#cbffb9" d="M 378.128906 152.199219 L 445.628906 152.199219 L 445.628906 219.699219 L 378.128906 219.699219 Z M 378.128906 152.199219 " fill-opacity="1" fill-rule="nonzero"/></g><g clip-path="url(#70af139b75)"><path fill="#cbffb9" d="M 378.128906 78.75 L 445.628906 78.75 L 445.628906 146.25 L 378.128906 146.25 Z M 378.128906 78.75 " fill-opacity="1" fill-rule="nonzero"/></g><g clip-path="url(#291ca062c0)"><path fill="#cbffb9" d="M 378.128906 5.300781 L 445.628906 5.300781 L 445.628906 72.800781 L 378.128906 72.800781 Z M 378.128906 5.300781 " fill-opacity="1" fill-rule="nonzero"/></g><g fill="#ffffff" fill-opacity="1"><g transform="translate(33.980693, 66.949591)"><g><path d="M 2.15625 0 L 2.15625 -17.140625 L 5.796875 -17.140625 L 5.796875 -3 L 12.734375 -3 L 12.734375 0 Z M 2.15625 0 "/></g></g><g transform="translate(47.539286, 66.949591)"><g><path d="M 7.296875 -10.8125 C 6.546875 -10.8125 5.953125 -10.566406 5.515625 -10.078125 C 5.085938 -9.597656 4.84375 -8.921875 4.78125 -8.046875 L 9.796875 -8.046875 C 9.785156 -8.921875 9.554688 -9.597656 9.109375 -10.078125 C 8.660156 -10.566406 8.054688 -10.8125 7.296875 -10.8125 Z M 7.8125 0.234375 C 5.695312 0.234375 4.046875 -0.347656 2.859375 -1.515625 C 1.671875 -2.679688 1.078125 -4.328125 1.078125 -6.453125 C 1.078125 -8.648438 1.625 -10.347656 2.71875 -11.546875 C 3.820312 -12.742188 5.34375 -13.34375 7.28125 -13.34375 C 9.132812 -13.34375 10.578125 -12.816406 11.609375 -11.765625 C 12.640625 -10.710938 13.15625 -9.253906 13.15625 -7.390625 L 13.15625 -5.65625 L 4.703125 -5.65625 C 4.742188 -4.644531 5.046875 -3.851562 5.609375 -3.28125 C 6.171875 -2.707031 6.957031 -2.421875 7.96875 -2.421875 C 8.757812 -2.421875 9.503906 -2.503906 10.203125 -2.671875 C 10.910156 -2.835938 11.644531 -3.097656 12.40625 -3.453125 L 12.40625 -0.6875 C 11.78125 -0.375 11.113281 -0.144531 10.40625 0 C 9.695312 0.15625 8.832031 0.234375 7.8125 0.234375 Z M 7.8125 0.234375 "/></g></g><g transform="translate(61.718973, 66.949591)"><g><path d="M 11.015625 -3.890625 C 11.015625 -2.546875 10.546875 -1.519531 9.609375 -0.8125 C 8.679688 -0.113281 7.285156 0.234375 5.421875 0.234375 C 4.472656 0.234375 3.660156 0.164062 2.984375 0.03125 C 2.316406 -0.09375 1.691406 -0.28125 1.109375 -0.53125 L 1.109375 -3.484375 C 1.765625 -3.171875 2.507812 -2.90625 3.34375 -2.6875 C 4.175781 -2.476562 4.910156 -2.375 5.546875 -2.375 C 6.835938 -2.375 7.484375 -2.75 7.484375 -3.5 C 7.484375 -3.78125 7.394531 -4.007812 7.21875 -4.1875 C 7.050781 -4.363281 6.753906 -4.5625 6.328125 -4.78125 C 5.910156 -5.007812 5.351562 -5.269531 4.65625 -5.5625 C 3.644531 -5.988281 2.898438 -6.378906 2.421875 -6.734375 C 1.953125 -7.097656 1.609375 -7.507812 1.390625 -7.96875 C 1.179688 -8.4375 1.078125 -9.007812 1.078125 -9.6875 C 1.078125 -10.851562 1.523438 -11.753906 2.421875 -12.390625 C 3.328125 -13.023438 4.609375 -13.34375 6.265625 -13.34375 C 7.847656 -13.34375 9.382812 -13 10.875 -12.3125 L 9.796875 -9.734375 C 9.140625 -10.015625 8.523438 -10.242188 7.953125 -10.421875 C 7.390625 -10.609375 6.8125 -10.703125 6.21875 -10.703125 C 5.15625 -10.703125 4.625 -10.414062 4.625 -9.84375 C 4.625 -9.519531 4.796875 -9.238281 5.140625 -9 C 5.484375 -8.769531 6.226562 -8.425781 7.375 -7.96875 C 8.394531 -7.550781 9.144531 -7.160156 9.625 -6.796875 C 10.101562 -6.441406 10.453125 -6.03125 10.671875 -5.5625 C 10.898438 -5.09375 11.015625 -4.535156 11.015625 -3.890625 Z M 11.015625 -3.890625 "/></g></g><g transform="translate(73.64866, 66.949591)"><g/></g><g transform="translate(79.883035, 66.949591)"><g><path d="M 10.203125 0 L 9.5 -1.78125 L 9.40625 -1.78125 C 8.8125 -1.019531 8.191406 -0.492188 7.546875 -0.203125 C 6.910156 0.0859375 6.082031 0.234375 5.0625 0.234375 C 3.800781 0.234375 2.8125 -0.125 2.09375 -0.84375 C 1.375 -1.5625 1.015625 -2.585938 1.015625 -3.921875 C 1.015625 -5.304688 1.5 -6.328125 2.46875 -6.984375 C 3.4375 -7.648438 4.90625 -8.019531 6.875 -8.09375 L 9.140625 -8.15625 L 9.140625 -8.734375 C 9.140625 -10.054688 8.460938 -10.71875 7.109375 -10.71875 C 6.054688 -10.71875 4.820312 -10.40625 3.40625 -9.78125 L 2.234375 -12.1875 C 3.734375 -12.976562 5.40625 -13.375 7.25 -13.375 C 9 -13.375 10.34375 -12.988281 11.28125 -12.21875 C 12.21875 -11.457031 12.6875 -10.296875 12.6875 -8.734375 L 12.6875 0 Z M 9.140625 -6.078125 L 7.765625 -6.03125 C 6.722656 -6 5.945312 -5.8125 5.4375 -5.46875 C 4.925781 -5.125 4.671875 -4.597656 4.671875 -3.890625 C 4.671875 -2.878906 5.25 -2.375 6.40625 -2.375 C 7.238281 -2.375 7.898438 -2.613281 8.390625 -3.09375 C 8.890625 -3.570312 9.140625 -4.207031 9.140625 -5 Z M 9.140625 -6.078125 "/></g></g><g transform="translate(94.379128, 66.949591)"><g><path d="M 9.078125 0.234375 C 7.535156 0.234375 6.328125 -0.320312 5.453125 -1.4375 L 5.265625 -1.4375 C 5.390625 -0.34375 5.453125 0.285156 5.453125 0.453125 L 5.453125 5.765625 L 1.875 5.765625 L 1.875 -13.109375 L 4.78125 -13.109375 L 5.28125 -11.40625 L 5.453125 -11.40625 C 6.285156 -12.695312 7.523438 -13.34375 9.171875 -13.34375 C 10.710938 -13.34375 11.921875 -12.742188 12.796875 -11.546875 C 13.671875 -10.359375 14.109375 -8.703125 14.109375 -6.578125 C 14.109375 -5.179688 13.898438 -3.96875 13.484375 -2.9375 C 13.078125 -1.90625 12.492188 -1.117188 11.734375 -0.578125 C 10.984375 -0.0351562 10.097656 0.234375 9.078125 0.234375 Z M 8.015625 -10.484375 C 7.128906 -10.484375 6.484375 -10.210938 6.078125 -9.671875 C 5.671875 -9.128906 5.460938 -8.234375 5.453125 -6.984375 L 5.453125 -6.59375 C 5.453125 -5.1875 5.660156 -4.175781 6.078125 -3.5625 C 6.492188 -2.957031 7.15625 -2.65625 8.0625 -2.65625 C 9.664062 -2.65625 10.46875 -3.976562 10.46875 -6.625 C 10.46875 -7.914062 10.269531 -8.878906 9.875 -9.515625 C 9.476562 -10.160156 8.859375 -10.484375 8.015625 -10.484375 Z M 8.015625 -10.484375 "/></g></g><g transform="translate(109.566628, 66.949591)"><g><path d="M 9.078125 0.234375 C 7.535156 0.234375 6.328125 -0.320312 5.453125 -1.4375 L 5.265625 -1.4375 C 5.390625 -0.34375 5.453125 0.285156 5.453125 0.453125 L 5.453125 5.765625 L 1.875 5.765625 L 1.875 -13.109375 L 4.78125 -13.109375 L 5.28125 -11.40625 L 5.453125 -11.40625 C 6.285156 -12.695312 7.523438 -13.34375 9.171875 -13.34375 C 10.710938 -13.34375 11.921875 -12.742188 12.796875 -11.546875 C 13.671875 -10.359375 14.109375 -8.703125 14.109375 -6.578125 C 14.109375 -5.179688 13.898438 -3.96875 13.484375 -2.9375 C 13.078125 -1.90625 12.492188 -1.117188 11.734375 -0.578125 C 10.984375 -0.0351562 10.097656 0.234375 9.078125 0.234375 Z M 8.015625 -10.484375 C 7.128906 -10.484375 6.484375 -10.210938 6.078125 -9.671875 C 5.671875 -9.128906 5.460938 -8.234375 5.453125 -6.984375 L 5.453125 -6.59375 C 5.453125 -5.1875 5.660156 -4.175781 6.078125 -3.5625 C 6.492188 -2.957031 7.15625 -2.65625 8.0625 -2.65625 C 9.664062 -2.65625 10.46875 -3.976562 10.46875 -6.625 C 10.46875 -7.914062 10.269531 -8.878906 9.875 -9.515625 C 9.476562 -10.160156 8.859375 -10.484375 8.015625 -10.484375 Z M 8.015625 -10.484375 "/></g></g><g transform="translate(124.754127, 66.949591)"><g><path d="M 4.71875 -6.578125 C 4.71875 -5.273438 4.929688 -4.289062 5.359375 -3.625 C 5.785156 -2.96875 6.476562 -2.640625 7.4375 -2.640625 C 8.394531 -2.640625 9.082031 -2.96875 9.5 -3.625 C 9.914062 -4.289062 10.125 -5.273438 10.125 -6.578125 C 10.125 -7.867188 9.910156 -8.835938 9.484375 -9.484375 C 9.066406 -10.140625 8.378906 -10.46875 7.421875 -10.46875 C 6.460938 -10.46875 5.769531 -10.144531 5.34375 -9.5 C 4.925781 -8.851562 4.71875 -7.878906 4.71875 -6.578125 Z M 13.78125 -6.578125 C 13.78125 -4.441406 13.21875 -2.769531 12.09375 -1.5625 C 10.96875 -0.363281 9.398438 0.234375 7.390625 0.234375 C 6.140625 0.234375 5.03125 -0.0390625 4.0625 -0.59375 C 3.101562 -1.144531 2.363281 -1.9375 1.84375 -2.96875 C 1.332031 -4 1.078125 -5.203125 1.078125 -6.578125 C 1.078125 -8.710938 1.632812 -10.375 2.75 -11.5625 C 3.875 -12.75 5.445312 -13.34375 7.46875 -13.34375 C 8.726562 -13.34375 9.835938 -13.066406 10.796875 -12.515625 C 11.753906 -11.972656 12.488281 -11.191406 13 -10.171875 C 13.519531 -9.148438 13.78125 -7.953125 13.78125 -6.578125 Z M 13.78125 -6.578125 "/></g></g><g transform="translate(139.613501, 66.949591)"><g><path d="M 9.1875 -13.34375 C 9.675781 -13.34375 10.078125 -13.3125 10.390625 -13.25 L 10.125 -9.890625 C 9.832031 -9.972656 9.484375 -10.015625 9.078125 -10.015625 C 7.929688 -10.015625 7.039062 -9.71875 6.40625 -9.125 C 5.769531 -8.539062 5.453125 -7.722656 5.453125 -6.671875 L 5.453125 0 L 1.875 0 L 1.875 -13.109375 L 4.578125 -13.109375 L 5.109375 -10.90625 L 5.28125 -10.90625 C 5.6875 -11.632812 6.234375 -12.222656 6.921875 -12.671875 C 7.617188 -13.117188 8.375 -13.34375 9.1875 -13.34375 Z M 9.1875 -13.34375 "/></g></g><g transform="translate(150.511938, 66.949591)"><g><path d="M 7.390625 -2.609375 C 8.015625 -2.609375 8.765625 -2.75 9.640625 -3.03125 L 9.640625 -0.359375 C 8.753906 0.0351562 7.660156 0.234375 6.359375 0.234375 C 4.929688 0.234375 3.890625 -0.125 3.234375 -0.84375 C 2.585938 -1.570312 2.265625 -2.660156 2.265625 -4.109375 L 2.265625 -10.421875 L 0.546875 -10.421875 L 0.546875 -11.9375 L 2.515625 -13.125 L 3.546875 -15.890625 L 5.84375 -15.890625 L 5.84375 -13.109375 L 9.5 -13.109375 L 9.5 -10.421875 L 5.84375 -10.421875 L 5.84375 -4.109375 C 5.84375 -3.597656 5.984375 -3.21875 6.265625 -2.96875 C 6.546875 -2.726562 6.921875 -2.609375 7.390625 -2.609375 Z M 7.390625 -2.609375 "/></g></g><g transform="translate(160.929907, 66.949591)"><g><path d="M 7.296875 -10.8125 C 6.546875 -10.8125 5.953125 -10.566406 5.515625 -10.078125 C 5.085938 -9.597656 4.84375 -8.921875 4.78125 -8.046875 L 9.796875 -8.046875 C 9.785156 -8.921875 9.554688 -9.597656 9.109375 -10.078125 C 8.660156 -10.566406 8.054688 -10.8125 7.296875 -10.8125 Z M 7.8125 0.234375 C 5.695312 0.234375 4.046875 -0.347656 2.859375 -1.515625 C 1.671875 -2.679688 1.078125 -4.328125 1.078125 -6.453125 C 1.078125 -8.648438 1.625 -10.347656 2.71875 -11.546875 C 3.820312 -12.742188 5.34375 -13.34375 7.28125 -13.34375 C 9.132812 -13.34375 10.578125 -12.816406 11.609375 -11.765625 C 12.640625 -10.710938 13.15625 -9.253906 13.15625 -7.390625 L 13.15625 -5.65625 L 4.703125 -5.65625 C 4.742188 -4.644531 5.046875 -3.851562 5.609375 -3.28125 C 6.171875 -2.707031 6.957031 -2.421875 7.96875 -2.421875 C 8.757812 -2.421875 9.503906 -2.503906 10.203125 -2.671875 C 10.910156 -2.835938 11.644531 -3.097656 12.40625 -3.453125 L 12.40625 -0.6875 C 11.78125 -0.375 11.113281 -0.144531 10.40625 0 C 9.695312 0.15625 8.832031 0.234375 7.8125 0.234375 Z M 7.8125 0.234375 "/></g></g><g transform="translate(175.109594, 66.949591)"><g><path d="M 11.15625 0 L 10.671875 -1.671875 L 10.484375 -1.671875 C 10.109375 -1.066406 9.566406 -0.597656 8.859375 -0.265625 C 8.160156 0.0664062 7.359375 0.234375 6.453125 0.234375 C 4.921875 0.234375 3.765625 -0.175781 2.984375 -1 C 2.203125 -1.820312 1.8125 -3.007812 1.8125 -4.5625 L 1.8125 -13.109375 L 5.375 -13.109375 L 5.375 -5.453125 C 5.375 -4.503906 5.539062 -3.789062 5.875 -3.3125 C 6.21875 -2.84375 6.753906 -2.609375 7.484375 -2.609375 C 8.484375 -2.609375 9.207031 -2.941406 9.65625 -3.609375 C 10.101562 -4.285156 10.328125 -5.394531 10.328125 -6.9375 L 10.328125 -13.109375 L 13.90625 -13.109375 L 13.90625 0 Z M 11.15625 0 "/></g></g><g transform="translate(190.88303, 66.949591)"><g><path d="M 9.1875 -13.34375 C 9.675781 -13.34375 10.078125 -13.3125 10.390625 -13.25 L 10.125 -9.890625 C 9.832031 -9.972656 9.484375 -10.015625 9.078125 -10.015625 C 7.929688 -10.015625 7.039062 -9.71875 6.40625 -9.125 C 5.769531 -8.539062 5.453125 -7.722656 5.453125 -6.671875 L 5.453125 0 L 1.875 0 L 1.875 -13.109375 L 4.578125 -13.109375 L 5.109375 -10.90625 L 5.28125 -10.90625 C 5.6875 -11.632812 6.234375 -12.222656 6.921875 -12.671875 C 7.617188 -13.117188 8.375 -13.34375 9.1875 -13.34375 Z M 9.1875 -13.34375 "/></g></g><g transform="translate(201.781467, 66.949591)"><g><path d="M 11.015625 -3.890625 C 11.015625 -2.546875 10.546875 -1.519531 9.609375 -0.8125 C 8.679688 -0.113281 7.285156 0.234375 5.421875 0.234375 C 4.472656 0.234375 3.660156 0.164062 2.984375 0.03125 C 2.316406 -0.09375 1.691406 -0.28125 1.109375 -0.53125 L 1.109375 -3.484375 C 1.765625 -3.171875 2.507812 -2.90625 3.34375 -2.6875 C 4.175781 -2.476562 4.910156 -2.375 5.546875 -2.375 C 6.835938 -2.375 7.484375 -2.75 7.484375 -3.5 C 7.484375 -3.78125 7.394531 -4.007812 7.21875 -4.1875 C 7.050781 -4.363281 6.753906 -4.5625 6.328125 -4.78125 C 5.910156 -5.007812 5.351562 -5.269531 4.65625 -5.5625 C 3.644531 -5.988281 2.898438 -6.378906 2.421875 -6.734375 C 1.953125 -7.097656 1.609375 -7.507812 1.390625 -7.96875 C 1.179688 -8.4375 1.078125 -9.007812 1.078125 -9.6875 C 1.078125 -10.851562 1.523438 -11.753906 2.421875 -12.390625 C 3.328125 -13.023438 4.609375 -13.34375 6.265625 -13.34375 C 7.847656 -13.34375 9.382812 -13 10.875 -12.3125 L 9.796875 -9.734375 C 9.140625 -10.015625 8.523438 -10.242188 7.953125 -10.421875 C 7.390625 -10.609375 6.8125 -10.703125 6.21875 -10.703125 C 5.15625 -10.703125 4.625 -10.414062 4.625 -9.84375 C 4.625 -9.519531 4.796875 -9.238281 5.140625 -9 C 5.484375 -8.769531 6.226562 -8.425781 7.375 -7.96875 C 8.394531 -7.550781 9.144531 -7.160156 9.625 -6.796875 C 10.101562 -6.441406 10.453125 -6.03125 10.671875 -5.5625 C 10.898438 -5.09375 11.015625 -4.535156 11.015625 -3.890625 Z M 11.015625 -3.890625 "/></g></g></g><g fill="#ffffff" fill-opacity="1"><g transform="translate(33.980693, 99.94959)"><g><path d="M 6.03125 0.234375 C 4.488281 0.234375 3.273438 -0.363281 2.390625 -1.5625 C 1.515625 -2.757812 1.078125 -4.414062 1.078125 -6.53125 C 1.078125 -8.675781 1.523438 -10.347656 2.421875 -11.546875 C 3.316406 -12.742188 4.550781 -13.34375 6.125 -13.34375 C 7.769531 -13.34375 9.023438 -12.703125 9.890625 -11.421875 L 10.015625 -11.421875 C 9.828125 -12.398438 9.734375 -13.273438 9.734375 -14.046875 L 9.734375 -18.234375 L 13.328125 -18.234375 L 13.328125 0 L 10.578125 0 L 9.890625 -1.703125 L 9.734375 -1.703125 C 8.921875 -0.410156 7.6875 0.234375 6.03125 0.234375 Z M 7.28125 -2.609375 C 8.195312 -2.609375 8.863281 -2.875 9.28125 -3.40625 C 9.707031 -3.9375 9.941406 -4.84375 9.984375 -6.125 L 9.984375 -6.5 C 9.984375 -7.90625 9.765625 -8.910156 9.328125 -9.515625 C 8.898438 -10.128906 8.195312 -10.4375 7.21875 -10.4375 C 6.425781 -10.4375 5.804688 -10.097656 5.359375 -9.421875 C 4.921875 -8.753906 4.703125 -7.773438 4.703125 -6.484375 C 4.703125 -5.191406 4.921875 -4.222656 5.359375 -3.578125 C 5.804688 -2.929688 6.445312 -2.609375 7.28125 -2.609375 Z M 7.28125 -2.609375 "/></g></g><g transform="translate(49.168192, 99.94959)"><g><path d="M 4.828125 -17.140625 L 4.34375 -10.953125 L 2.046875 -10.953125 L 1.5625 -17.140625 Z M 4.828125 -17.140625 "/></g></g><g transform="translate(55.554911, 99.94959)"><g><path d="M 10.203125 0 L 9.5 -1.78125 L 9.40625 -1.78125 C 8.8125 -1.019531 8.191406 -0.492188 7.546875 -0.203125 C 6.910156 0.0859375 6.082031 0.234375 5.0625 0.234375 C 3.800781 0.234375 2.8125 -0.125 2.09375 -0.84375 C 1.375 -1.5625 1.015625 -2.585938 1.015625 -3.921875 C 1.015625 -5.304688 1.5 -6.328125 2.46875 -6.984375 C 3.4375 -7.648438 4.90625 -8.019531 6.875 -8.09375 L 9.140625 -8.15625 L 9.140625 -8.734375 C 9.140625 -10.054688 8.460938 -10.71875 7.109375 -10.71875 C 6.054688 -10.71875 4.820312 -10.40625 3.40625 -9.78125 L 2.234375 -12.1875 C 3.734375 -12.976562 5.40625 -13.375 7.25 -13.375 C 9 -13.375 10.34375 -12.988281 11.28125 -12.21875 C 12.21875 -11.457031 12.6875 -10.296875 12.6875 -8.734375 L 12.6875 0 Z M 9.140625 -6.078125 L 7.765625 -6.03125 C 6.722656 -6 5.945312 -5.8125 5.4375 -5.46875 C 4.925781 -5.125 4.671875 -4.597656 4.671875 -3.890625 C 4.671875 -2.878906 5.25 -2.375 6.40625 -2.375 C 7.238281 -2.375 7.898438 -2.613281 8.390625 -3.09375 C 8.890625 -3.570312 9.140625 -4.207031 9.140625 -5 Z M 9.140625 -6.078125 "/></g></g><g transform="translate(70.051004, 99.94959)"><g><path d="M 9.125 -10.421875 L 6.03125 -10.421875 L 6.03125 0 L 2.453125 0 L 2.453125 -10.421875 L 0.484375 -10.421875 L 0.484375 -12.140625 L 2.453125 -13.109375 L 2.453125 -14.0625 C 2.453125 -15.550781 2.816406 -16.640625 3.546875 -17.328125 C 4.285156 -18.015625 5.460938 -18.359375 7.078125 -18.359375 C 8.316406 -18.359375 9.414062 -18.175781 10.375 -17.8125 L 9.453125 -15.1875 C 8.734375 -15.414062 8.070312 -15.53125 7.46875 -15.53125 C 6.957031 -15.53125 6.585938 -15.378906 6.359375 -15.078125 C 6.140625 -14.773438 6.03125 -14.390625 6.03125 -13.921875 L 6.03125 -13.109375 L 9.125 -13.109375 Z M 9.125 -10.421875 "/></g></g><g transform="translate(79.343972, 99.94959)"><g><path d="M 9.125 -10.421875 L 6.03125 -10.421875 L 6.03125 0 L 2.453125 0 L 2.453125 -10.421875 L 0.484375 -10.421875 L 0.484375 -12.140625 L 2.453125 -13.109375 L 2.453125 -14.0625 C 2.453125 -15.550781 2.816406 -16.640625 3.546875 -17.328125 C 4.285156 -18.015625 5.460938 -18.359375 7.078125 -18.359375 C 8.316406 -18.359375 9.414062 -18.175781 10.375 -17.8125 L 9.453125 -15.1875 C 8.734375 -15.414062 8.070312 -15.53125 7.46875 -15.53125 C 6.957031 -15.53125 6.585938 -15.378906 6.359375 -15.078125 C 6.140625 -14.773438 6.03125 -14.390625 6.03125 -13.921875 L 6.03125 -13.109375 L 9.125 -13.109375 Z M 9.125 -10.421875 "/></g></g><g transform="translate(88.636941, 99.94959)"><g><path d="M 10.203125 0 L 9.5 -1.78125 L 9.40625 -1.78125 C 8.8125 -1.019531 8.191406 -0.492188 7.546875 -0.203125 C 6.910156 0.0859375 6.082031 0.234375 5.0625 0.234375 C 3.800781 0.234375 2.8125 -0.125 2.09375 -0.84375 C 1.375 -1.5625 1.015625 -2.585938 1.015625 -3.921875 C 1.015625 -5.304688 1.5 -6.328125 2.46875 -6.984375 C 3.4375 -7.648438 4.90625 -8.019531 6.875 -8.09375 L 9.140625 -8.15625 L 9.140625 -8.734375 C 9.140625 -10.054688 8.460938 -10.71875 7.109375 -10.71875 C 6.054688 -10.71875 4.820312 -10.40625 3.40625 -9.78125 L 2.234375 -12.1875 C 3.734375 -12.976562 5.40625 -13.375 7.25 -13.375 C 9 -13.375 10.34375 -12.988281 11.28125 -12.21875 C 12.21875 -11.457031 12.6875 -10.296875 12.6875 -8.734375 L 12.6875 0 Z M 9.140625 -6.078125 L 7.765625 -6.03125 C 6.722656 -6 5.945312 -5.8125 5.4375 -5.46875 C 4.925781 -5.125 4.671875 -4.597656 4.671875 -3.890625 C 4.671875 -2.878906 5.25 -2.375 6.40625 -2.375 C 7.238281 -2.375 7.898438 -2.613281 8.390625 -3.09375 C 8.890625 -3.570312 9.140625 -4.207031 9.140625 -5 Z M 9.140625 -6.078125 "/></g></g><g transform="translate(103.133034, 99.94959)"><g><path d="M 1.71875 -16.484375 C 1.71875 -17.648438 2.367188 -18.234375 3.671875 -18.234375 C 4.960938 -18.234375 5.609375 -17.648438 5.609375 -16.484375 C 5.609375 -15.929688 5.445312 -15.5 5.125 -15.1875 C 4.800781 -14.882812 4.316406 -14.734375 3.671875 -14.734375 C 2.367188 -14.734375 1.71875 -15.316406 1.71875 -16.484375 Z M 5.453125 0 L 1.875 0 L 1.875 -13.109375 L 5.453125 -13.109375 Z M 5.453125 0 "/></g></g><g transform="translate(110.457252, 99.94959)"><g><path d="M 9.1875 -13.34375 C 9.675781 -13.34375 10.078125 -13.3125 10.390625 -13.25 L 10.125 -9.890625 C 9.832031 -9.972656 9.484375 -10.015625 9.078125 -10.015625 C 7.929688 -10.015625 7.039062 -9.71875 6.40625 -9.125 C 5.769531 -8.539062 5.453125 -7.722656 5.453125 -6.671875 L 5.453125 0 L 1.875 0 L 1.875 -13.109375 L 4.578125 -13.109375 L 5.109375 -10.90625 L 5.28125 -10.90625 C 5.6875 -11.632812 6.234375 -12.222656 6.921875 -12.671875 C 7.617188 -13.117188 8.375 -13.34375 9.1875 -13.34375 Z M 9.1875 -13.34375 "/></g></g><g transform="translate(121.355689, 99.94959)"><g><path d="M 7.296875 -10.8125 C 6.546875 -10.8125 5.953125 -10.566406 5.515625 -10.078125 C 5.085938 -9.597656 4.84375 -8.921875 4.78125 -8.046875 L 9.796875 -8.046875 C 9.785156 -8.921875 9.554688 -9.597656 9.109375 -10.078125 C 8.660156 -10.566406 8.054688 -10.8125 7.296875 -10.8125 Z M 7.8125 0.234375 C 5.695312 0.234375 4.046875 -0.347656 2.859375 -1.515625 C 1.671875 -2.679688 1.078125 -4.328125 1.078125 -6.453125 C 1.078125 -8.648438 1.625 -10.347656 2.71875 -11.546875 C 3.820312 -12.742188 5.34375 -13.34375 7.28125 -13.34375 C 9.132812 -13.34375 10.578125 -12.816406 11.609375 -11.765625 C 12.640625 -10.710938 13.15625 -9.253906 13.15625 -7.390625 L 13.15625 -5.65625 L 4.703125 -5.65625 C 4.742188 -4.644531 5.046875 -3.851562 5.609375 -3.28125 C 6.171875 -2.707031 6.957031 -2.421875 7.96875 -2.421875 C 8.757812 -2.421875 9.503906 -2.503906 10.203125 -2.671875 C 10.910156 -2.835938 11.644531 -3.097656 12.40625 -3.453125 L 12.40625 -0.6875 C 11.78125 -0.375 11.113281 -0.144531 10.40625 0 C 9.695312 0.15625 8.832031 0.234375 7.8125 0.234375 Z M 7.8125 0.234375 "/></g></g><g transform="translate(135.535376, 99.94959)"><g><path d="M 11.015625 -3.890625 C 11.015625 -2.546875 10.546875 -1.519531 9.609375 -0.8125 C 8.679688 -0.113281 7.285156 0.234375 5.421875 0.234375 C 4.472656 0.234375 3.660156 0.164062 2.984375 0.03125 C 2.316406 -0.09375 1.691406 -0.28125 1.109375 -0.53125 L 1.109375 -3.484375 C 1.765625 -3.171875 2.507812 -2.90625 3.34375 -2.6875 C 4.175781 -2.476562 4.910156 -2.375 5.546875 -2.375 C 6.835938 -2.375 7.484375 -2.75 7.484375 -3.5 C 7.484375 -3.78125 7.394531 -4.007812 7.21875 -4.1875 C 7.050781 -4.363281 6.753906 -4.5625 6.328125 -4.78125 C 5.910156 -5.007812 5.351562 -5.269531 4.65625 -5.5625 C 3.644531 -5.988281 2.898438 -6.378906 2.421875 -6.734375 C 1.953125 -7.097656 1.609375 -7.507812 1.390625 -7.96875 C 1.179688 -8.4375 1.078125 -9.007812 1.078125 -9.6875 C 1.078125 -10.851562 1.523438 -11.753906 2.421875 -12.390625 C 3.328125 -13.023438 4.609375 -13.34375 6.265625 -13.34375 C 7.847656 -13.34375 9.382812 -13 10.875 -12.3125 L 9.796875 -9.734375 C 9.140625 -10.015625 8.523438 -10.242188 7.953125 -10.421875 C 7.390625 -10.609375 6.8125 -10.703125 6.21875 -10.703125 C 5.15625 -10.703125 4.625 -10.414062 4.625 -9.84375 C 4.625 -9.519531 4.796875 -9.238281 5.140625 -9 C 5.484375 -8.769531 6.226562 -8.425781 7.375 -7.96875 C 8.394531 -7.550781 9.144531 -7.160156 9.625 -6.796875 C 10.101562 -6.441406 10.453125 -6.03125 10.671875 -5.5625 C 10.898438 -5.09375 11.015625 -4.535156 11.015625 -3.890625 Z M 11.015625 -3.890625 "/></g></g></g><g clip-path="url(#9a8bd53954)"><path fill="#2b2b2b" d="M 276.722656 57.328125 L 274.757812 59.65625 C 274.757812 59.65625 272.429688 67.359375 272.304688 67.851562 C 272.179688 68.339844 271.691406 72.5 271.691406 72.5 L 272.429688 74.945312 L 269.480469 75.925781 L 266.289062 76.292969 L 265.550781 76.167969 L 266.042969 77.882812 L 266.042969 78.617188 L 265.0625 79.839844 L 266.289062 80.082031 L 272.792969 79.839844 L 273.164062 87.054688 L 273.285156 87.910156 L 287.527344 87.175781 L 288.628906 88.398438 L 288.507812 89.378906 L 289.980469 88.769531 L 288.015625 82.652344 L 286.175781 76.046875 L 284.703125 73.109375 L 283.964844 68.707031 L 283.351562 62.589844 C 283.351562 62.589844 282.003906 55.25 276.722656 57.328125 Z M 276.722656 57.328125 " fill-opacity="1" fill-rule="nonzero"/></g><path fill="#2b2b2b" d="M 270.914062 51.597656 L 271.078125 51.214844 L 273.164062 51.824219 L 274.515625 51.949219 L 275.375 54.152344 L 274.515625 55.742188 L 275.863281 56.351562 L 277.03125 57.222656 C 279.308594 56.460938 280.820312 57.492188 281.792969 58.847656 L 282.492188 57.453125 L 281.265625 54.152344 C 281.265625 54.152344 280.40625 48.644531 277.828125 48.15625 C 277.828125 48.15625 274.882812 47.910156 272.429688 49.378906 L 270.339844 50.113281 L 269.726562 50.847656 L 270.585938 51.335938 Z M 270.914062 51.597656 " fill-opacity="1" fill-rule="nonzero"/><path fill="#ffffff" d="M 272.058594 59.652344 L 273.777344 59.53125 L 274.546875 60.367188 C 274.679688 59.925781 274.761719 59.652344 274.761719 59.652344 L 276.722656 57.328125 C 276.828125 57.289062 276.929688 57.257812 277.03125 57.222656 L 275.863281 56.351562 L 274.515625 55.738281 L 275.375 54.148438 L 274.515625 51.945312 L 273.164062 51.824219 L 271.078125 51.214844 L 270.097656 53.539062 L 269.976562 54.882812 L 269.238281 55.859375 L 270.097656 56.597656 Z M 272.058594 59.652344 " fill-opacity="1" fill-rule="nonzero"/><path fill="#2b2b2b" d="M 288.136719 87.855469 L 287.523438 87.175781 L 273.640625 87.890625 L 272.671875 91.945312 L 271.8125 98.917969 L 271.199219 101.367188 C 271.199219 101.367188 278.8125 102.222656 279.546875 102.222656 C 280.28125 102.222656 288.875 102.835938 288.875 102.835938 L 288.136719 88.523438 Z M 288.136719 87.855469 " fill-opacity="1" fill-rule="nonzero"/><path fill="#ffffff" d="M 273.777344 130.601562 C 273.777344 130.601562 275.128906 129.746094 275.496094 129.621094 C 275.863281 129.5 279.300781 127.054688 279.300781 127.054688 L 279.925781 126.246094 C 279.84375 126.070312 279.761719 125.890625 279.671875 125.707031 L 279.179688 123.015625 C 279.179688 123.015625 281.019531 108.828125 279.914062 106.503906 L 278.8125 104.789062 L 279.457031 102.21875 C 278.640625 102.183594 274.640625 101.75 272.519531 101.511719 L 272.304688 103.566406 L 274.144531 106.503906 C 274.144531 106.503906 276.355469 121.917969 275.375 124.609375 L 271.199219 129.988281 L 269.972656 130.339844 L 270.21875 130.480469 Z M 273.777344 130.601562 " fill-opacity="1" fill-rule="nonzero"/><path fill="#2b2b2b" d="M 268.621094 131.824219 L 269.851562 132.3125 L 275.003906 132.191406 L 276.234375 131.335938 L 278.6875 129.867188 L 278.566406 132.070312 L 279.300781 132.070312 L 280.773438 128.886719 C 280.773438 128.886719 280.578125 127.71875 279.925781 126.246094 L 279.300781 127.054688 C 279.300781 127.054688 275.863281 129.5 275.496094 129.621094 C 275.128906 129.746094 273.777344 130.601562 273.777344 130.601562 L 270.21875 130.480469 L 269.976562 130.339844 L 268.621094 130.722656 C 268.621094 130.722656 267.886719 131.457031 268.621094 131.824219 Z M 268.621094 131.824219 " fill-opacity="1" fill-rule="nonzero"/><path fill="#ffffff" d="M 283.476562 128.03125 L 286.8125 126.515625 L 286.421875 124.363281 L 286.050781 118.492188 C 287.402344 111.394531 285.5625 106.257812 285.5625 106.257812 L 285.460938 102.59375 C 282.972656 102.421875 279.96875 102.222656 279.546875 102.222656 C 279.523438 102.222656 279.488281 102.222656 279.449219 102.21875 C 279.453125 102.21875 279.453125 102.21875 279.453125 102.21875 L 278.8125 104.789062 L 279.914062 106.503906 C 280.214844 107.136719 280.296875 108.65625 280.257812 110.523438 L 281.753906 114.578125 L 282.613281 122.652344 C 282.714844 124.742188 281.707031 126.472656 280.496094 127.78125 C 280.699219 128.453125 280.773438 128.886719 280.773438 128.886719 L 280.53125 129.410156 L 282.738281 129.011719 Z M 283.476562 128.03125 " fill-opacity="1" fill-rule="nonzero"/><path fill="#2b2b2b" d="M 286.910156 127.054688 L 286.8125 126.515625 L 283.476562 128.03125 L 282.738281 129.011719 L 280.53125 129.410156 L 279.398438 131.863281 C 281.003906 131.84375 282.738281 131.457031 282.738281 131.457031 L 284.824219 130.601562 C 285.5625 129.988281 286.296875 132.066406 286.296875 132.066406 L 286.789062 132.066406 L 286.910156 130.234375 C 288.503906 129.011719 286.910156 127.054688 286.910156 127.054688 Z M 278.578125 131.835938 L 278.6875 129.867188 L 276.800781 130.996094 C 277.027344 131.523438 277.730469 131.757812 278.578125 131.835938 Z M 278.578125 131.835938 " fill-opacity="1" fill-rule="nonzero"/><path fill="#ffffff" d="M 266.046875 78.613281 L 266.046875 77.878906 L 265.558594 76.1875 L 263.710938 75.921875 L 262.484375 74.820312 L 260.027344 74.699219 L 259.171875 77.515625 L 259.171875 78.738281 L 261.503906 79.46875 L 264.203125 78.738281 L 265.8125 78.90625 Z M 266.046875 78.613281 " fill-opacity="1" fill-rule="nonzero"/><path fill="#ffffff" d="M 276.601562 84.242188 L 275.617188 85.953125 L 273.164062 87.542969 L 272.550781 88.277344 L 272.917969 88.765625 L 274.757812 87.910156 L 275.988281 89.378906 L 278.566406 89.621094 L 279.667969 88.277344 L 279.792969 85.585938 C 279.792969 85.585938 279.425781 83.261719 276.601562 84.242188 Z M 276.601562 84.242188 " fill-opacity="1" fill-rule="nonzero"/><path fill="#cbffb9" d="M 284.332031 73.964844 L 283.597656 79.714844 L 282.25 84.609375 L 281.386719 85.832031 L 279.789062 85.652344 L 279.671875 88.273438 L 287.035156 86.078125 Z M 270.460938 89.992188 L 271.445312 90.726562 L 275.980469 89.371094 L 274.761719 87.910156 L 272.917969 88.765625 L 272.550781 88.277344 L 273.164062 87.542969 L 275.621094 85.953125 L 276.03125 85.238281 L 275.863281 85.21875 L 277.582031 81.304688 L 278.449219 75.828125 C 274.195312 77.167969 269.148438 78.738281 268.867188 78.738281 Z M 270.460938 89.992188 " fill-opacity="1" fill-rule="nonzero"/><g clip-path="url(#17b401a0cf)"><path fill="#2b2b2b" d="M 244.195312 54.152344 L 240.757812 57.574219 L 237.445312 61.976562 L 236.09375 66.136719 L 234.621094 73.601562 L 232.902344 78.859375 L 229.835938 85.464844 L 229.21875 89.867188 L 230.324219 89.992188 L 232.042969 89.136719 L 233.515625 89.257812 L 239.652344 90.96875 L 246.773438 93.417969 L 245.914062 95.496094 L 249.351562 95.496094 L 249.597656 94.394531 L 249.351562 84.484375 L 250.210938 77.515625 L 257.820312 79.960938 L 259.417969 75.800781 L 252.789062 71.886719 L 251.4375 70.785156 L 250.945312 61.488281 C 250.945312 61.492188 248.613281 55.371094 244.195312 54.152344 Z M 244.195312 54.152344 " fill-opacity="1" fill-rule="nonzero"/></g><path fill="#ffffff" d="M 255.609375 50.234375 C 255.585938 50.007812 255.546875 49.800781 255.503906 49.59375 L 254.875 49.625 L 253.402344 48.644531 L 252.050781 48.152344 L 252.171875 50.722656 L 250.457031 50.847656 C 249.964844 48.523438 248.246094 50.113281 248.246094 50.113281 L 246.894531 52.679688 L 245.789062 53.292969 L 244.914062 53.117188 L 244.929688 53.78125 L 244.667969 54.304688 C 247.054688 55.179688 248.785156 57.457031 249.816406 59.214844 L 251.925781 57.699219 L 253.277344 57.453125 L 254.261719 56.351562 L 254.875 54.515625 L 255.363281 54.515625 L 255.734375 53.902344 L 255.484375 52.4375 Z M 255.609375 50.234375 " fill-opacity="1" fill-rule="nonzero"/><path fill="#2b2b2b" d="M 246.894531 52.683594 L 248.246094 50.113281 C 248.246094 50.113281 249.964844 48.523438 250.457031 50.847656 L 252.171875 50.722656 L 252.050781 48.15625 L 253.402344 48.644531 L 254.875 49.625 L 255.503906 49.59375 C 254.480469 44.792969 248.613281 45.464844 248.613281 45.464844 C 245.546875 45.464844 244.808594 48.890625 244.808594 48.890625 L 244.914062 53.121094 L 245.789062 53.292969 Z M 246.894531 52.683594 " fill-opacity="1" fill-rule="nonzero"/><path fill="#2b2b2b" d="M 244.195312 116.65625 L 244.316406 114.820312 L 245.914062 103.078125 L 246.207031 95.496094 L 245.914062 95.496094 L 246.234375 94.710938 L 246.292969 93.25 L 239.652344 90.96875 L 233.515625 89.257812 L 232.042969 89.132812 L 231.390625 89.457031 L 234.007812 99.410156 L 235.972656 104.179688 L 234.988281 105.644531 L 233.269531 109.808594 L 231.796875 120.570312 L 230.816406 128.152344 L 230.816406 128.765625 L 233.269531 129.257812 L 240.390625 129.257812 L 242.109375 127.054688 L 245.914062 125.953125 L 246.160156 124.242188 L 245.421875 120.816406 Z M 244.195312 116.65625 " fill-opacity="1" fill-rule="nonzero"/><g clip-path="url(#80a5696cef)"><path fill="#2b2b2b" d="M 250.085938 128.519531 L 248.125 127.542969 L 246.160156 124.242188 L 245.914062 125.953125 L 242.105469 127.054688 L 240.390625 129.257812 L 233.269531 129.257812 L 231.273438 128.859375 L 231.0625 131.703125 C 231.0625 131.703125 231.429688 132.3125 232.164062 132.433594 C 232.902344 132.558594 242.230469 134.269531 242.230469 134.269531 C 242.230469 134.269531 246.894531 134.394531 246.40625 132.558594 L 245.546875 131.703125 L 243.335938 130.847656 L 240.394531 129.910156 L 242.351562 129.746094 L 243.089844 128.765625 L 245.054688 130.113281 L 249.351562 130.480469 L 251.4375 129.867188 C 252.417969 128.640625 250.085938 128.519531 250.085938 128.519531 Z M 250.085938 128.519531 " fill-opacity="1" fill-rule="nonzero"/></g><path fill="#ffffff" d="M 262.117188 75.433594 L 260.519531 75.921875 L 259.40625 75.832031 L 258.304688 78.699219 L 258.433594 78.859375 L 260.152344 80.203125 L 263.710938 79.714844 L 264.695312 78.125 Z M 262.117188 75.433594 " fill-opacity="1" fill-rule="nonzero"/><path fill="#ffffff" d="M 244.785156 54.070312 L 244.667969 54.304688 C 247.054688 55.179688 248.785156 57.457031 249.820312 59.214844 L 249.828125 59.210938 C 249.109375 54.34375 246.082031 53.992188 244.785156 54.070312 Z M 244.785156 54.070312 " fill-opacity="1" fill-rule="nonzero"/><g clip-path="url(#51e6d7329b)"><path fill="#cbffb9" d="M 146.621094 166.796875 L 214.121094 166.796875 L 214.121094 185.78125 L 146.621094 185.78125 Z M 146.621094 166.796875 " fill-opacity="1" fill-rule="nonzero"/></g><g fill="#000000" fill-opacity="1"><g transform="translate(166.481931, 181.082042)"><g><path d="M 6.8125 -9.78125 L 8.90625 -9.78125 L 5.578125 0 L 3.3125 0 L 0 -9.78125 L 2.09375 -9.78125 L 3.9375 -3.96875 C 4.039062 -3.625 4.144531 -3.222656 4.25 -2.765625 C 4.363281 -2.304688 4.429688 -1.988281 4.453125 -1.8125 C 4.503906 -2.21875 4.671875 -2.9375 4.953125 -3.96875 Z M 6.8125 -9.78125 "/></g></g><g transform="translate(175.383009, 181.082042)"><g><path d="M 2.703125 -3.75 C 2.703125 -3.007812 2.820312 -2.445312 3.0625 -2.0625 C 3.300781 -1.6875 3.695312 -1.5 4.25 -1.5 C 4.789062 -1.5 5.179688 -1.6875 5.421875 -2.0625 C 5.660156 -2.445312 5.78125 -3.007812 5.78125 -3.75 C 5.78125 -4.488281 5.660156 -5.039062 5.421875 -5.40625 C 5.179688 -5.78125 4.785156 -5.96875 4.234375 -5.96875 C 3.691406 -5.96875 3.300781 -5.785156 3.0625 -5.421875 C 2.820312 -5.054688 2.703125 -4.5 2.703125 -3.75 Z M 7.875 -3.75 C 7.875 -2.53125 7.550781 -1.578125 6.90625 -0.890625 C 6.257812 -0.203125 5.363281 0.140625 4.21875 0.140625 C 3.5 0.140625 2.863281 -0.015625 2.3125 -0.328125 C 1.769531 -0.648438 1.347656 -1.101562 1.046875 -1.6875 C 0.753906 -2.28125 0.609375 -2.96875 0.609375 -3.75 C 0.609375 -4.976562 0.925781 -5.929688 1.5625 -6.609375 C 2.207031 -7.285156 3.109375 -7.625 4.265625 -7.625 C 4.984375 -7.625 5.613281 -7.46875 6.15625 -7.15625 C 6.707031 -6.84375 7.128906 -6.394531 7.421875 -5.8125 C 7.722656 -5.226562 7.875 -4.539062 7.875 -3.75 Z M 7.875 -3.75 "/></g></g><g transform="translate(183.862774, 181.082042)"><g><path d="M 0.984375 -9.421875 C 0.984375 -10.078125 1.351562 -10.40625 2.09375 -10.40625 C 2.832031 -10.40625 3.203125 -10.078125 3.203125 -9.421875 C 3.203125 -9.097656 3.109375 -8.847656 2.921875 -8.671875 C 2.742188 -8.492188 2.46875 -8.40625 2.09375 -8.40625 C 1.351562 -8.40625 0.984375 -8.742188 0.984375 -9.421875 Z M 3.109375 0 L 1.078125 0 L 1.078125 -7.484375 L 3.109375 -7.484375 Z M 3.109375 0 "/></g></g><g transform="translate(188.042469, 181.082042)"><g><path d="M 5.25 -7.625 C 5.519531 -7.625 5.75 -7.601562 5.9375 -7.5625 L 5.78125 -5.640625 C 5.613281 -5.691406 5.410156 -5.71875 5.171875 -5.71875 C 4.523438 -5.71875 4.019531 -5.546875 3.65625 -5.203125 C 3.289062 -4.867188 3.109375 -4.40625 3.109375 -3.8125 L 3.109375 0 L 1.078125 0 L 1.078125 -7.484375 L 2.609375 -7.484375 L 2.921875 -6.21875 L 3.015625 -6.21875 C 3.242188 -6.644531 3.554688 -6.984375 3.953125 -7.234375 C 4.347656 -7.492188 4.78125 -7.625 5.25 -7.625 Z M 5.25 -7.625 "/></g></g></g></svg>